<svg width="24" height="24" viewBox="0 0 24 24" fill="currentColor" xmlns="http://www.w3.org/2000/svg">
<path d="M14.2851 9.44295C15.2354 9.44295 16.0166 10.1758 16.0915 11.1068C15.6818 11.1619 15.2789 11.259 14.8891 11.3968V11.255C14.8891 11.0948 14.8255 10.9412 14.7122 10.8279C14.5989 10.7146 14.4453 10.651 14.2851 10.651H9.04859C8.88839 10.651 8.73476 10.7146 8.62148 10.8279C8.5082 10.9412 8.44456 11.0948 8.44456 11.255V16.2878C8.44459 17.0885 8.74266 17.8605 9.2807 18.4535C9.81874 19.0465 10.5582 19.4179 11.3552 19.4956C11.5409 19.9231 11.7755 20.3276 12.0542 20.7012C11.4421 20.7549 10.8255 20.6807 10.2436 20.4834C9.66175 20.286 9.12728 19.9697 8.6742 19.5546C8.22111 19.1396 7.85933 18.6348 7.61182 18.0724C7.36431 17.51 7.2365 16.9022 7.23651 16.2878V11.255C7.23651 10.7744 7.42743 10.3135 7.76726 9.9737C8.10709 9.63387 8.568 9.44295 9.04859 9.44295H14.2851ZM20.1208 11.8592C20.5652 12.14 20.9713 12.4134 21.3289 12.7988V11.255C21.3289 10.7744 21.1379 10.3135 20.7981 9.9737C20.4583 9.63387 19.9974 9.44295 19.5168 9.44295H16.1745C16.4918 9.77476 16.7238 10.1895 16.8325 10.651H19.5168C19.677 10.651 19.8306 10.7146 19.9439 10.8279C20.0572 10.9412 20.1208 11.0948 20.1208 11.255V11.8592ZM3.81208 9.44295H7.15919C6.83586 9.7796 6.60865 10.1968 6.50121 10.651H3.81208C3.65188 10.651 3.49825 10.7146 3.38497 10.8279C3.27169 10.9412 3.20805 11.0948 3.20805 11.255V15.4824C3.20795 15.8865 3.30916 16.2842 3.50244 16.6391C3.69572 16.9939 3.97489 17.2947 4.31442 17.5138C4.65395 17.7329 5.04301 17.8634 5.44599 17.8933C5.84898 17.9233 6.25304 17.8517 6.62121 17.6851C6.72832 18.0797 6.88215 18.455 7.07544 18.8062C6.52365 19.0471 5.92055 19.1468 5.32059 19.0962C4.72063 19.0457 4.14272 18.8465 3.63903 18.5166C3.13534 18.1868 2.72174 17.7366 2.43559 17.2069C2.14943 16.6772 1.99973 16.0845 2 15.4824V11.255C2 10.7744 2.19092 10.3135 2.53075 9.9737C2.87058 9.63387 3.33149 9.44295 3.81208 9.44295ZM11.6644 3C12.0346 3 12.4011 3.07291 12.7431 3.21457C13.0851 3.35623 13.3959 3.56386 13.6576 3.82561C13.9194 4.08735 14.127 4.3981 14.2687 4.74009C14.4103 5.08208 14.4832 5.44862 14.4832 5.81879C14.4832 6.18896 14.4103 6.55551 14.2687 6.8975C14.127 7.23949 13.9194 7.55023 13.6576 7.81198C13.3959 8.07373 13.0851 8.28136 12.7431 8.42302C12.4011 8.56467 12.0346 8.63758 11.6644 8.63758C10.9168 8.63758 10.1999 8.3406 9.67124 7.81198C9.14262 7.28335 8.84564 6.56638 8.84564 5.81879C8.84564 5.0712 9.14262 4.35423 9.67124 3.82561C10.1999 3.29698 10.9168 3 11.6644 3ZM18.1098 3.80537C18.4271 3.80537 18.7413 3.86786 19.0344 3.98928C19.3275 4.11071 19.5939 4.28867 19.8182 4.51303C20.0426 4.73739 20.2206 5.00374 20.342 5.29687C20.4634 5.59001 20.5259 5.90419 20.5259 6.22148C20.5259 6.53876 20.4634 6.85295 20.342 7.14608C20.2206 7.43922 20.0426 7.70557 19.8182 7.92992C19.5939 8.15428 19.3275 8.33225 19.0344 8.45367C18.7413 8.57509 18.4271 8.63758 18.1098 8.63758C17.469 8.63758 16.8545 8.38303 16.4014 7.92992C15.9482 7.47681 15.6937 6.86227 15.6937 6.22148C15.6937 5.58068 15.9482 4.96614 16.4014 4.51303C16.8545 4.05992 17.469 3.80537 18.1098 3.80537ZM5.21906 3.80537C5.53635 3.80537 5.85053 3.86786 6.14367 3.98928C6.4368 4.11071 6.70315 4.28867 6.92751 4.51303C7.15186 4.73739 7.32983 5.00374 7.45125 5.29687C7.57267 5.59001 7.63517 5.90419 7.63517 6.22148C7.63517 6.53876 7.57267 6.85295 7.45125 7.14608C7.32983 7.43922 7.15186 7.70557 6.92751 7.92992C6.70315 8.15428 6.4368 8.33225 6.14367 8.45367C5.85053 8.57509 5.53635 8.63758 5.21906 8.63758C4.57827 8.63758 3.96372 8.38303 3.51061 7.92992C3.05751 7.47681 2.80295 6.86227 2.80295 6.22148C2.80295 5.58068 3.05751 4.96614 3.51061 4.51303C3.96372 4.05992 4.57827 3.80537 5.21906 3.80537ZM11.6644 4.20805C11.2372 4.20805 10.8275 4.37776 10.5255 4.67983C10.2234 4.9819 10.0537 5.3916 10.0537 5.81879C10.0537 6.24599 10.2234 6.65568 10.5255 6.95776C10.8275 7.25983 11.2372 7.42953 11.6644 7.42953C12.0916 7.42953 12.5013 7.25983 12.8034 6.95776C13.1055 6.65568 13.2752 6.24599 13.2752 5.81879C13.2752 5.3916 13.1055 4.9819 12.8034 4.67983C12.5013 4.37776 12.0916 4.20805 11.6644 4.20805ZM18.1098 5.01342C17.9512 5.01342 17.7941 5.04467 17.6475 5.10538C17.5009 5.16609 17.3678 5.25507 17.2556 5.36725C17.1434 5.47943 17.0544 5.61261 16.9937 5.75917C16.933 5.90574 16.9017 6.06283 16.9017 6.22148C16.9017 6.38012 16.933 6.53721 16.9937 6.68378C17.0544 6.83035 17.1434 6.96352 17.2556 7.0757C17.3678 7.18788 17.5009 7.27686 17.6475 7.33757C17.7941 7.39828 17.9512 7.42953 18.1098 7.42953C18.4302 7.42953 18.7375 7.30225 18.964 7.0757C19.1906 6.84915 19.3179 6.54187 19.3179 6.22148C19.3179 5.90108 19.1906 5.59381 18.964 5.36725C18.7375 5.1407 18.4302 5.01342 18.1098 5.01342ZM5.21906 5.01342C5.06042 5.01342 4.90333 5.04467 4.75676 5.10538C4.61019 5.16609 4.47702 5.25507 4.36484 5.36725C4.25266 5.47943 4.16368 5.61261 4.10296 5.75917C4.04225 5.90574 4.01101 6.06283 4.01101 6.22148C4.01101 6.38012 4.04225 6.53721 4.10296 6.68378C4.16368 6.83035 4.25266 6.96352 4.36484 7.0757C4.47702 7.18788 4.61019 7.27686 4.75676 7.33757C4.90333 7.39828 5.06042 7.42953 5.21906 7.42953C5.53946 7.42953 5.84673 7.30225 6.07328 7.0757C6.29984 6.84915 6.42711 6.54187 6.42711 6.22148C6.42711 5.90108 6.29984 5.59381 6.07328 5.36725C5.84673 5.1407 5.53946 5.01342 5.21906 5.01342Z" fill="currentColor"/>
<path fill-rule="evenodd" clip-rule="evenodd" d="M18.1818 11.9376C17.9988 11.8591 17.7664 11.8591 17.302 11.8591C16.8377 11.8591 16.6053 11.8591 16.4223 11.9376C16.1787 12.0421 15.9849 12.2434 15.8833 12.4973C15.8368 12.6125 15.819 12.7474 15.8116 12.9433C15.8083 13.0852 15.7704 13.2239 15.7015 13.3462C15.6327 13.4686 15.535 13.5705 15.418 13.6425C15.2986 13.7118 15.1645 13.7485 15.028 13.7492C14.8915 13.7499 14.7571 13.7146 14.6371 13.6466C14.47 13.5546 14.3488 13.504 14.2291 13.4874C13.9673 13.4515 13.7025 13.5251 13.4923 13.6921C13.3351 13.8171 13.2189 14.0259 12.9869 14.443C12.7545 14.86 12.6388 15.0683 12.6126 15.2724C12.578 15.5442 12.6492 15.8191 12.8104 16.0367C12.8836 16.1359 12.9869 16.2191 13.1467 16.3235C13.3825 16.477 13.5339 16.7385 13.5339 17.0268C13.5339 17.3152 13.3825 17.5767 13.1472 17.7297C12.9869 17.8346 12.8836 17.9178 12.8099 18.017C12.7303 18.1245 12.6719 18.2473 12.638 18.3785C12.6042 18.5097 12.5955 18.6466 12.6126 18.7813C12.6388 18.9849 12.7545 19.1937 12.9869 19.6107C13.2194 20.0278 13.3351 20.236 13.4923 20.3616C13.702 20.5285 13.9671 20.6019 14.2291 20.5663C14.3488 20.5497 14.47 20.4991 14.6371 20.4071C14.7571 20.339 14.8917 20.3036 15.0283 20.3043C15.1649 20.3051 15.2991 20.3418 15.4184 20.4112C15.6588 20.5559 15.8012 20.8221 15.8116 21.1104C15.819 21.3068 15.8368 21.4412 15.8833 21.5564C15.9842 21.8096 16.178 22.0112 16.4223 22.1161C16.6053 22.1946 16.8377 22.1946 17.302 22.1946C17.7664 22.1946 17.9988 22.1946 18.1818 22.1161C18.4253 22.0116 18.6192 21.8103 18.7208 21.5564C18.7673 21.4412 18.7851 21.3068 18.7925 21.1104C18.8024 20.8221 18.9453 20.5554 19.1861 20.4112C19.3054 20.3419 19.4395 20.3052 19.576 20.3045C19.7125 20.3038 19.847 20.3391 19.967 20.4071C20.1341 20.4991 20.2553 20.5497 20.3749 20.5663C20.637 20.6024 20.9021 20.5285 21.1118 20.3616C21.269 20.2366 21.3852 20.0278 21.6171 19.6107C21.8496 19.1937 21.9653 18.9854 21.9915 18.7813C22.0085 18.6466 21.9998 18.5096 21.9658 18.3785C21.9318 18.2473 21.8734 18.1244 21.7937 18.017C21.7205 17.9178 21.6171 17.8346 21.4574 17.7302C21.2215 17.5767 21.0702 17.3152 21.0702 17.0268C21.0702 16.7385 21.2215 16.477 21.4569 16.324C21.6171 16.2191 21.7205 16.1359 21.7942 16.0367C21.8738 15.9292 21.9322 15.8064 21.966 15.6752C21.9999 15.544 22.0086 15.4071 21.9915 15.2724C21.9653 15.0688 21.8496 14.86 21.6171 14.443C21.3847 14.0259 21.269 13.8176 21.1118 13.6921C20.9016 13.5251 20.6368 13.4515 20.3749 13.4874C20.2553 13.504 20.1341 13.5546 19.967 13.6466C19.8469 13.7147 19.7124 13.7501 19.5758 13.7493C19.4392 13.7486 19.305 13.7119 19.1856 13.6425C19.0686 13.5705 18.9711 13.4685 18.9023 13.3461C18.8335 13.2238 18.7957 13.0851 18.7925 12.9433C18.7851 12.7469 18.7673 12.6125 18.7208 12.4973C18.6705 12.3716 18.5971 12.2574 18.5046 12.1614C18.4121 12.0654 18.3024 11.9893 18.1818 11.9376ZM17.302 18.5772C18.1279 18.5772 18.7969 17.8831 18.7969 17.0268C18.7969 16.1705 18.1274 15.4765 17.302 15.4765C16.4762 15.4765 15.8071 16.1705 15.8071 17.0268C15.8071 17.8831 16.4767 18.5772 17.302 18.5772Z" fill="currentColor"/>
</svg>
