<svg width="24" height="24" viewBox="0 0 24 24" fill="none" xmlns="http://www.w3.org/2000/svg">
<path d="M6.5 7.93934L11.22 3.21934C11.3249 3.11458 11.4585 3.04326 11.6039 3.01438C11.7493 2.98549 11.9 3.00034 12.0369 3.05705C12.1739 3.11377 12.291 3.20979 12.3734 3.33301C12.4558 3.45622 12.4999 3.6011 12.5 3.74934V19.6293C12.4999 19.7776 12.4558 19.9225 12.3734 20.0457C12.291 20.1689 12.1739 20.2649 12.0369 20.3216C11.9 20.3783 11.7493 20.3932 11.6039 20.3643C11.4585 20.3354 11.3249 20.2641 11.22 20.1593L6.5 15.4393H4.26C3.38 15.4393 2.556 14.9323 2.322 14.0853C2.10752 13.3048 1.99922 12.4988 2 11.6893C2 10.8593 2.112 10.0563 2.322 9.29334C2.556 8.44534 3.38 7.93934 4.26 7.93934H6.5Z" stroke="currentColor" stroke-width="1.5" stroke-linecap="round" stroke-linejoin="round"/>
<path d="M22.2505 12.5L16.75 12.5C16.5511 12.5 16.3603 12.421 16.2197 12.2803C16.079 12.1397 16 11.9489 16 11.75C16 11.5511 16.079 11.3603 16.2197 11.2197C16.3603 11.079 16.5511 11 16.75 11L22.2505 11C22.4494 11 22.6402 11.079 22.7808 11.2197C22.9215 11.3603 23.0005 11.5511 23.0005 11.75C23.0005 11.9489 22.9215 12.1397 22.7808 12.2803C22.6402 12.421 22.4494 12.5 22.2505 12.5Z" fill="currentColor"/>
<path d="M21.3236 5.27462L17.4266 7.52457C17.2543 7.62403 17.0496 7.65098 16.8575 7.5995C16.6654 7.54801 16.5015 7.42231 16.4021 7.25005C16.3026 7.07779 16.2757 6.87307 16.3272 6.68094C16.3786 6.4888 16.5043 6.32499 16.6766 6.22553L20.5736 3.97559C20.7459 3.87613 20.9506 3.84918 21.1427 3.90066C21.3349 3.95214 21.4987 4.07784 21.5981 4.25011C21.6976 4.42237 21.7246 4.62709 21.6731 4.81922C21.6216 5.01135 21.4959 5.17517 21.3236 5.27462Z" fill="currentColor"/>
<path d="M20.5736 19.5246L16.6766 17.2747C16.5043 17.1752 16.3786 17.0114 16.3272 16.8193C16.2757 16.6271 16.3026 16.4224 16.4021 16.2502C16.5015 16.0779 16.6654 15.9522 16.8575 15.9007C17.0496 15.8492 17.2543 15.8762 17.4266 15.9756L21.3236 18.2256C21.4959 18.325 21.6216 18.4889 21.6731 18.681C21.7246 18.8731 21.6976 19.0778 21.5981 19.2501C21.4987 19.4224 21.3349 19.5481 21.1427 19.5995C20.9506 19.651 20.7459 19.6241 20.5736 19.5246Z" fill="currentColor"/>
</svg>
