<svg width="24" height="24" viewBox="0 0 24 24" fill="none" xmlns="http://www.w3.org/2000/svg">
<g id="icon_text primary_24">
<g id="Vector">
<path fill-rule="evenodd" clip-rule="evenodd" d="M11.943 1.25C9.634 1.25 7.825 1.25 6.413 1.44C4.969 1.634 3.829 2.04 2.934 2.934C2.039 3.829 1.634 4.969 1.44 6.414C1.25 7.825 1.25 9.634 1.25 11.943V12.057C1.25 14.366 1.25 16.175 1.44 17.587C1.634 19.031 2.04 20.171 2.934 21.066C3.829 21.961 4.969 22.366 6.414 22.56C7.825 22.75 9.634 22.75 11.943 22.75H12.057C14.366 22.75 16.175 22.75 17.587 22.56C19.031 22.366 20.171 21.96 21.066 21.066C21.961 20.171 22.366 19.031 22.56 17.586C22.75 16.175 22.75 14.366 22.75 12.057V11.943C22.75 9.634 22.75 7.825 22.56 6.413C22.366 4.969 21.96 3.829 21.066 2.934C20.171 2.039 19.031 1.634 17.586 1.44C16.175 1.25 14.366 1.25 12.057 1.25H11.943ZM3.995 3.995C4.565 3.425 5.335 3.098 6.614 2.926C7.914 2.752 9.622 2.75 12 2.75C14.378 2.75 16.086 2.752 17.386 2.926C18.665 3.098 19.436 3.426 20.006 3.995C20.575 4.565 20.902 5.335 21.074 6.614C21.248 7.914 21.25 9.622 21.25 12C21.25 14.378 21.248 16.086 21.074 17.386C20.902 18.665 20.574 19.436 20.005 20.006C19.435 20.575 18.665 20.902 17.386 21.074C16.086 21.248 14.378 21.25 12 21.25C9.622 21.25 7.914 21.248 6.614 21.074C5.335 20.902 4.564 20.574 3.994 20.005C3.425 19.435 3.098 18.665 2.926 17.386C2.752 16.086 2.75 14.378 2.75 12C2.75 9.622 2.752 7.914 2.926 6.614C3.098 5.335 3.426 4.565 3.995 3.995Z" fill="currentColor"/>
<path d="M16.75 18C16.5511 18 16.3603 17.921 16.2197 17.7803C16.079 17.6397 16 17.4489 16 17.25V6.75C16 6.55109 16.079 6.36032 16.2197 6.21967C16.3603 6.07902 16.5511 6 16.75 6C16.9489 6 17.1397 6.07902 17.2803 6.21967C17.421 6.36032 17.5 6.55109 17.5 6.75V17.25C17.5 17.4489 17.421 17.6397 17.2803 17.7803C17.1397 17.921 16.9489 18 16.75 18ZM12.25 18C12.0511 18 11.8603 17.921 11.7197 17.7803C11.579 17.6397 11.5 17.4489 11.5 17.25V9.75C11.5 9.55109 11.579 9.36032 11.7197 9.21967C11.8603 9.07902 12.0511 9 12.25 9C12.4489 9 12.6397 9.07902 12.7803 9.21967C12.921 9.36032 13 9.55109 13 9.75V17.25C13 17.4489 12.921 17.6397 12.7803 17.7803C12.6397 17.921 12.4489 18 12.25 18ZM7.75 18C7.55109 18 7.36032 17.921 7.21967 17.7803C7.07902 17.6397 7 17.4489 7 17.25V12.75C7 12.5511 7.07902 12.3603 7.21967 12.2197C7.36032 12.079 7.55109 12 7.75 12C7.94891 12 8.13968 12.079 8.28033 12.2197C8.42098 12.3603 8.5 12.5511 8.5 12.75V17.25C8.5 17.4489 8.42098 17.6397 8.28033 17.7803C8.13968 17.921 7.94891 18 7.75 18Z" fill="currentColor"/>
</g>
</g>
</svg>
