<svg width="24" height="24" viewBox="0 0 24 24" fill="currentColor" xmlns="http://www.w3.org/2000/svg">
<path d="M18.5693 4.25863L12.0017 10.8263L5.43406 4.25863C5.2761 4.11408 5.06845 4.03605 4.85439 4.04079C4.64033 4.04553 4.43635 4.13269 4.28494 4.28409C4.13354 4.43549 4.04639 4.63947 4.04164 4.85354C4.0369 5.0676 4.11493 5.27524 4.25948 5.4332L10.8238 12.0008L4.25781 18.5668C4.1776 18.6432 4.11347 18.735 4.06921 18.8365C4.02495 18.9381 4.00144 19.0475 4.00006 19.1583C3.99869 19.2691 4.01948 19.3791 4.06122 19.4817C4.10295 19.5844 4.16479 19.6777 4.24309 19.7561C4.32138 19.8345 4.41457 19.8965 4.51716 19.9383C4.61975 19.9802 4.72968 20.0012 4.84048 20C4.95129 19.9987 5.06073 19.9754 5.16238 19.9313C5.26403 19.8871 5.35583 19.8231 5.43239 19.743L12.0017 13.1771L18.5693 19.7447C18.7273 19.8893 18.9349 19.9673 19.149 19.9625C19.363 19.9578 19.567 19.8706 19.7184 19.7192C19.8698 19.5678 19.957 19.3639 19.9617 19.1498C19.9665 18.9357 19.8884 18.7281 19.7439 18.5701L13.1763 12.0025L19.7439 5.4332C19.8241 5.35676 19.8882 5.26504 19.9325 5.16346C19.9768 5.06187 20.0003 4.95246 20.0016 4.84166C20.003 4.73086 19.9822 4.6209 19.9405 4.51825C19.8988 4.4156 19.8369 4.32233 19.7586 4.24392C19.6803 4.16551 19.5871 4.10354 19.4845 4.06166C19.382 4.01978 19.272 3.99883 19.1612 4.00005C19.0504 4.00127 18.941 4.02462 18.8393 4.06874C18.7377 4.11286 18.6459 4.17685 18.5693 4.25696V4.25863Z" fill="currentColor"/>
</svg>
