<svg width="24" height="24" viewBox="0 0 24 24" fill="currentColor" xmlns="http://www.w3.org/2000/svg">
<path d="M2.40039 4.7999C2.40039 4.16338 2.65325 3.55293 3.10333 3.10285C3.55342 2.65276 4.16387 2.3999 4.80039 2.3999H12.0004C12.6369 2.3999 13.2474 2.65276 13.6974 3.10285C14.1475 3.55293 14.4004 4.16338 14.4004 4.7999V5.9999H19.2004C19.8369 5.9999 20.4474 6.25276 20.8974 6.70285C21.3475 7.15293 21.6004 7.76338 21.6004 8.3999V20.3999C21.6004 20.7182 21.474 21.0234 21.2489 21.2484C21.0239 21.4735 20.7187 21.5999 20.4004 21.5999H3.60039C3.28213 21.5999 2.97691 21.4735 2.75186 21.2484C2.52682 21.0234 2.40039 20.7182 2.40039 20.3999V4.7999ZM14.4004 20.3999H16.8004V17.9999H14.4004V20.3999ZM18.0004 20.3999H20.4004V8.3999C20.4004 8.08164 20.274 7.77642 20.0489 7.55137C19.8239 7.32633 19.5187 7.1999 19.2004 7.1999H12.0004C11.6821 7.1999 11.3769 7.32633 11.1519 7.55137C10.9268 7.77642 10.8004 8.08164 10.8004 8.3999V20.3999H13.2004V17.9999C13.2004 17.6816 13.3268 17.3764 13.5519 17.1514C13.7769 16.9263 14.0821 16.7999 14.4004 16.7999H16.8004C17.1187 16.7999 17.4239 16.9263 17.6489 17.1514C17.874 17.3764 18.0004 17.6816 18.0004 17.9999V20.3999ZM13.2004 4.7999C13.2004 4.48164 13.074 4.17642 12.8489 3.95137C12.6239 3.72633 12.3187 3.5999 12.0004 3.5999H4.80039C4.48213 3.5999 4.17691 3.72633 3.95186 3.95137C3.72682 4.17642 3.60039 4.48164 3.60039 4.7999V20.3999H9.60039V8.3999C9.60039 7.76338 9.85325 7.15293 10.3033 6.70285C10.7534 6.25276 11.3639 5.9999 12.0004 5.9999H13.2004V4.7999ZM14.4004 10.4999C14.4004 10.7386 14.3056 10.9675 14.1368 11.1363C13.968 11.3051 13.7391 11.3999 13.5004 11.3999C13.2617 11.3999 13.0328 11.3051 12.864 11.1363C12.6952 10.9675 12.6004 10.7386 12.6004 10.4999C12.6004 10.2612 12.6952 10.0323 12.864 9.86351C13.0328 9.69472 13.2617 9.5999 13.5004 9.5999C13.7391 9.5999 13.968 9.69472 14.1368 9.86351C14.3056 10.0323 14.4004 10.2612 14.4004 10.4999ZM6.30039 11.3999C6.53909 11.3999 6.768 11.3051 6.93679 11.1363C7.10557 10.9675 7.20039 10.7386 7.20039 10.4999C7.20039 10.2612 7.10557 10.0323 6.93679 9.86351C6.768 9.69472 6.53909 9.5999 6.30039 9.5999C6.0617 9.5999 5.83278 9.69472 5.66399 9.86351C5.49521 10.0323 5.40039 10.2612 5.40039 10.4999C5.40039 10.7386 5.49521 10.9675 5.66399 11.1363C5.83278 11.3051 6.0617 11.3999 6.30039 11.3999ZM7.20039 6.8999C7.20039 7.1386 7.10557 7.36752 6.93679 7.5363C6.768 7.70508 6.53909 7.7999 6.30039 7.7999C6.0617 7.7999 5.83278 7.70508 5.66399 7.5363C5.49521 7.36752 5.40039 7.1386 5.40039 6.8999C5.40039 6.66121 5.49521 6.43229 5.66399 6.26351C5.83278 6.09472 6.0617 5.9999 6.30039 5.9999C6.53909 5.9999 6.768 6.09472 6.93679 6.26351C7.10557 6.43229 7.20039 6.66121 7.20039 6.8999ZM13.5004 14.9999C13.6186 14.9999 13.7356 14.9766 13.8448 14.9314C13.954 14.8862 14.0532 14.8199 14.1368 14.7363C14.2204 14.6527 14.2867 14.5535 14.3319 14.4443C14.3771 14.3351 14.4004 14.2181 14.4004 14.0999C14.4004 13.9817 14.3771 13.8647 14.3319 13.7555C14.2867 13.6463 14.2204 13.5471 14.1368 13.4635C14.0532 13.3799 13.954 13.3136 13.8448 13.2684C13.7356 13.2232 13.6186 13.1999 13.5004 13.1999C13.2617 13.1999 13.0328 13.2947 12.864 13.4635C12.6952 13.6323 12.6004 13.8612 12.6004 14.0999C12.6004 14.3386 12.6952 14.5675 12.864 14.7363C13.0328 14.9051 13.2617 14.9999 13.5004 14.9999ZM7.20039 17.6999C7.20039 17.9386 7.10557 18.1675 6.93679 18.3363C6.768 18.5051 6.53909 18.5999 6.30039 18.5999C6.0617 18.5999 5.83278 18.5051 5.66399 18.3363C5.49521 18.1675 5.40039 17.9386 5.40039 17.6999C5.40039 17.4612 5.49521 17.2323 5.66399 17.0635C5.83278 16.8947 6.0617 16.7999 6.30039 16.7999C6.53909 16.7999 6.768 16.8947 6.93679 17.0635C7.10557 17.2323 7.20039 17.4612 7.20039 17.6999ZM6.30039 14.9999C6.41858 14.9999 6.53561 14.9766 6.64481 14.9314C6.754 14.8862 6.85321 14.8199 6.93679 14.7363C7.02036 14.6527 7.08665 14.5535 7.13188 14.4443C7.17711 14.3351 7.20039 14.2181 7.20039 14.0999C7.20039 13.9817 7.17711 13.8647 7.13188 13.7555C7.08665 13.6463 7.02036 13.5471 6.93679 13.4635C6.85321 13.3799 6.754 13.3136 6.64481 13.2684C6.53561 13.2232 6.41858 13.1999 6.30039 13.1999C6.0617 13.1999 5.83278 13.2947 5.66399 13.4635C5.49521 13.6323 5.40039 13.8612 5.40039 14.0999C5.40039 14.3386 5.49521 14.5675 5.66399 14.7363C5.83278 14.9051 6.0617 14.9999 6.30039 14.9999ZM18.6004 10.4999C18.6004 10.7386 18.5056 10.9675 18.3368 11.1363C18.168 11.3051 17.9391 11.3999 17.7004 11.3999C17.4617 11.3999 17.2328 11.3051 17.064 11.1363C16.8952 10.9675 16.8004 10.7386 16.8004 10.4999C16.8004 10.2612 16.8952 10.0323 17.064 9.86351C17.2328 9.69472 17.4617 9.5999 17.7004 9.5999C17.9391 9.5999 18.168 9.69472 18.3368 9.86351C18.5056 10.0323 18.6004 10.2612 18.6004 10.4999ZM17.7004 14.9999C17.8186 14.9999 17.9356 14.9766 18.0448 14.9314C18.154 14.8862 18.2532 14.8199 18.3368 14.7363C18.4204 14.6527 18.4867 14.5535 18.5319 14.4443C18.5771 14.3351 18.6004 14.2181 18.6004 14.0999C18.6004 13.9817 18.5771 13.8647 18.5319 13.7555C18.4867 13.6463 18.4204 13.5471 18.3368 13.4635C18.2532 13.3799 18.154 13.3136 18.0448 13.2684C17.9356 13.2232 17.8186 13.1999 17.7004 13.1999C17.4617 13.1999 17.2328 13.2947 17.064 13.4635C16.8952 13.6323 16.8004 13.8612 16.8004 14.0999C16.8004 14.3386 16.8952 14.5675 17.064 14.7363C17.2328 14.9051 17.4617 14.9999 17.7004 14.9999Z" fill="currentColor"/>
</svg>
