<svg width="25" height="24" viewBox="0 0 25 24" fill="currentColor" xmlns="http://www.w3.org/2000/svg">
<path d="M12.5 2.4375C10.6087 2.4375 8.75991 2.99833 7.18736 4.04907C5.61482 5.09981 4.38917 6.59327 3.66541 8.34059C2.94164 10.0879 2.75227 12.0106 3.12125 13.8656C3.49022 15.7205 4.40096 17.4244 5.7383 18.7617C7.07564 20.099 8.77951 21.0098 10.6345 21.3788C12.4894 21.7477 14.4121 21.5584 16.1594 20.8346C17.9067 20.1108 19.4002 18.8852 20.4509 17.3126C21.5017 15.7401 22.0625 13.8913 22.0625 12C22.0595 9.46478 21.0511 7.03425 19.2584 5.24158C17.4658 3.44891 15.0352 2.44048 12.5 2.4375ZM12.5 20.4375C10.8312 20.4375 9.19992 19.9426 7.81238 19.0155C6.42484 18.0884 5.34338 16.7706 4.70477 15.2289C4.06616 13.6871 3.89907 11.9906 4.22463 10.3539C4.55019 8.71721 5.35379 7.21379 6.53379 6.03379C7.7138 4.85378 9.21722 4.05019 10.8539 3.72462C12.4906 3.39906 14.1871 3.56615 15.7289 4.20477C17.2706 4.84338 18.5884 5.92484 19.5155 7.31238C20.4427 8.69992 20.9375 10.3312 20.9375 12C20.935 14.237 20.0453 16.3817 18.4635 17.9635C16.8817 19.5453 14.737 20.435 12.5 20.4375ZM9.3125 12C9.3125 12.669 9.523 13.321 9.91417 13.8638C10.3053 14.4065 10.8574 14.8124 11.492 15.0239C12.1267 15.2355 12.8118 15.242 13.4504 15.0425C14.089 14.843 14.6486 14.4477 15.05 13.9125C15.1396 13.7932 15.273 13.7143 15.4208 13.6933C15.5686 13.6723 15.7186 13.7108 15.838 13.8005C15.9573 13.8901 16.0362 14.0235 16.0572 14.1713C16.0782 14.319 16.0396 14.4691 15.95 14.5884C15.4068 15.3123 14.6496 15.8469 13.7857 16.1166C12.9218 16.3863 11.995 16.3773 11.1364 16.091C10.2779 15.8047 9.53118 15.2556 9.00205 14.5213C8.47293 13.7871 8.18821 12.905 8.18821 12C8.18821 11.095 8.47293 10.2129 9.00205 9.47867C9.53118 8.74445 10.2779 8.1953 11.1364 7.90899C11.995 7.62268 12.9218 7.61373 13.7857 7.8834C14.6496 8.15307 15.4068 8.6877 15.95 9.41156C16.0396 9.53091 16.0782 9.68098 16.0572 9.82875C16.0362 9.97652 15.9573 10.1099 15.838 10.1995C15.7186 10.2892 15.5686 10.3277 15.4208 10.3067C15.273 10.2857 15.1396 10.2068 15.05 10.0875C14.6486 9.5523 14.089 9.15696 13.4504 8.95749C12.8118 8.75801 12.1267 8.76452 11.492 8.97607C10.8574 9.18763 10.3053 9.59351 9.91417 10.1362C9.523 10.679 9.3125 11.331 9.3125 12Z" fill="currentColor"/>
</svg>
