<svg width="8" height="8" viewBox="0 0 8 8" fill="none" xmlns="http://www.w3.org/2000/svg">
<g clip-path="url(#clip0_2946_6302)">
<path d="M7.25 4C7.25 4.64279 7.05939 5.27114 6.70228 5.8056C6.34516 6.34006 5.83758 6.75662 5.24372 7.00261C4.64986 7.24859 3.9964 7.31295 3.36596 7.18755C2.73552 7.06215 2.15643 6.75262 1.7019 6.2981C1.24738 5.84358 0.937851 5.26448 0.812449 4.63404C0.687047 4.00361 0.751408 3.35014 0.997393 2.75628C1.24338 2.16242 1.65994 1.65484 2.1944 1.29772C2.72886 0.940609 3.35721 0.75 4 0.75C4.86168 0.75091 5.6878 1.09361 6.29709 1.70291C6.90639 2.3122 7.24909 3.13833 7.25 4ZM6.75 4C6.75 3.4561 6.58872 2.92442 6.28654 2.47218C5.98437 2.01995 5.55488 1.66747 5.05238 1.45933C4.54988 1.25119 3.99695 1.19673 3.4635 1.30284C2.93006 1.40895 2.44005 1.67086 2.05546 2.05546C1.67086 2.44005 1.40895 2.93005 1.30284 3.4635C1.19673 3.99695 1.25119 4.54988 1.45933 5.05238C1.66747 5.55488 2.01995 5.98437 2.47218 6.28654C2.92442 6.58872 3.4561 6.75 4 6.75C4.72909 6.74917 5.42809 6.45918 5.94363 5.94363C6.45918 5.42808 6.74917 4.72909 6.75 4Z" fill="currentColor"/>
</g>
<defs>
<clipPath id="clip0_2946_6302">
<rect width="8" height="8" fill="white"/>
</clipPath>
</defs>
</svg>
