<svg width="24" height="24" viewBox="0 0 24 24" fill="currentColor" xmlns="http://www.w3.org/2000/svg">
<path d="M17.576 10.48C17.6977 10.3266 17.7546 10.1317 17.7345 9.93697C17.7145 9.7422 17.619 9.56301 17.4686 9.43766C17.3182 9.31232 17.1247 9.25076 16.9295 9.26615C16.7344 9.28153 16.5529 9.37264 16.424 9.52L14.627 11.676C14.257 12.121 14.028 12.392 13.841 12.561C13.7924 12.6088 13.7375 12.6498 13.678 12.683L13.667 12.688L13.656 12.683C13.5961 12.6498 13.541 12.6088 13.492 12.561C13.305 12.391 13.077 12.121 12.706 11.676L12.414 11.326C12.085 10.931 11.789 10.576 11.513 10.326C11.212 10.054 10.833 9.812 10.333 9.812C9.833 9.812 9.455 10.054 9.153 10.326C8.877 10.576 8.581 10.931 8.253 11.326L6.423 13.52C6.35997 13.5957 6.31246 13.6831 6.2832 13.7772C6.25393 13.8712 6.24348 13.9701 6.25244 14.0682C6.27054 14.2664 6.3666 14.4492 6.5195 14.5765C6.6724 14.7038 6.8696 14.7652 7.06774 14.7471C7.26587 14.729 7.4487 14.6329 7.576 14.48L9.373 12.324C9.743 11.879 9.972 11.608 10.159 11.439C10.2076 11.3912 10.2625 11.3502 10.322 11.317L10.333 11.312L10.344 11.317C10.4039 11.3502 10.459 11.3912 10.508 11.439C10.695 11.609 10.923 11.879 11.294 12.324L11.586 12.674C11.915 13.069 12.211 13.424 12.487 13.674C12.788 13.946 13.167 14.188 13.667 14.188C14.167 14.188 14.545 13.946 14.847 13.674C15.123 13.424 15.419 13.069 15.747 12.674L17.576 10.48Z" fill="currentColor"/>
<path fill-rule="evenodd" clip-rule="evenodd" d="M11.943 1.25C9.634 1.25 7.825 1.25 6.413 1.44C4.969 1.634 3.829 2.04 2.934 2.934C2.039 3.829 1.634 4.969 1.44 6.414C1.25 7.825 1.25 9.634 1.25 11.943V12.057C1.25 14.366 1.25 16.175 1.44 17.587C1.634 19.031 2.04 20.171 2.934 21.066C3.829 21.961 4.969 22.366 6.414 22.56C7.825 22.75 9.634 22.75 11.943 22.75H12.057C14.366 22.75 16.175 22.75 17.587 22.56C19.031 22.366 20.171 21.96 21.066 21.066C21.961 20.171 22.366 19.031 22.56 17.586C22.75 16.175 22.75 14.366 22.75 12.057V11.943C22.75 9.634 22.75 7.825 22.56 6.413C22.366 4.969 21.96 3.829 21.066 2.934C20.171 2.039 19.031 1.634 17.586 1.44C16.175 1.25 14.366 1.25 12.057 1.25H11.943ZM3.995 3.995C4.565 3.425 5.335 3.098 6.614 2.926C7.914 2.752 9.622 2.75 12 2.75C14.378 2.75 16.086 2.752 17.386 2.926C18.665 3.098 19.436 3.426 20.006 3.995C20.575 4.565 20.902 5.335 21.074 6.614C21.248 7.914 21.25 9.622 21.25 12C21.25 14.378 21.248 16.086 21.074 17.386C20.902 18.665 20.574 19.436 20.005 20.006C19.435 20.575 18.665 20.902 17.386 21.074C16.086 21.248 14.378 21.25 12 21.25C9.622 21.25 7.914 21.248 6.614 21.074C5.335 20.902 4.564 20.574 3.994 20.005C3.425 19.435 3.098 18.665 2.926 17.386C2.752 16.086 2.75 14.378 2.75 12C2.75 9.622 2.752 7.914 2.926 6.614C3.098 5.335 3.426 4.565 3.995 3.995Z" fill="currentColor"/>
</svg>
