<svg width="24" height="24" viewBox="0 0 24 24" fill="currentColor" xmlns="http://www.w3.org/2000/svg">
<path fill-rule="evenodd" clip-rule="evenodd" d="M12 3.53846C9.75586 3.53846 7.60363 4.42994 6.01679 6.01679C4.42994 7.60363 3.53846 9.75586 3.53846 12C3.53846 14.2441 4.42994 16.3964 6.01679 17.9832C7.60363 19.5701 9.75586 20.4615 12 20.4615C14.2441 20.4615 16.3964 19.5701 17.9832 17.9832C19.5701 16.3964 20.4615 14.2441 20.4615 12C20.4615 9.75586 19.5701 7.60363 17.9832 6.01679C16.3964 4.42994 14.2441 3.53846 12 3.53846ZM2 12C2 6.47692 6.47692 2 12 2C17.5231 2 22 6.47692 22 12C22 17.5231 17.5231 22 12 22C6.47692 22 2 17.5231 2 12Z"/>
<path d="M12 11.2308L15.0769 11.2308C15.2809 11.2308 15.4766 11.3118 15.6208 11.4561C15.7651 11.6003 15.8462 11.796 15.8462 12C15.8462 12.204 15.7651 12.3997 15.6208 12.5439C15.4766 12.6882 15.2809 12.7692 15.0769 12.7692L12 12.7692L8.92308 12.7692C8.71906 12.7692 8.52341 12.6882 8.37915 12.5439C8.23489 12.3997 8.15385 12.204 8.15385 12C8.15385 11.796 8.23489 11.6003 8.37915 11.4561C8.52341 11.3118 8.71906 11.2308 8.92308 11.2308L12 11.2308Z"/>
</svg>
