<svg width="24" height="24" viewBox="0 0 24 24" fill="currentColor" xmlns="http://www.w3.org/2000/svg">
<path fill-rule="evenodd" clip-rule="evenodd" d="M21.4551 5.41632C21.5501 5.56052 21.5924 5.7331 21.5749 5.9049C21.5574 6.07671 21.4812 6.23721 21.3591 6.35932L12.1661 15.5513C12.072 15.6453 11.9547 15.7126 11.8261 15.7463L7.99706 16.7463C7.87049 16.7793 7.73748 16.7787 7.61125 16.7444C7.48502 16.7101 7.36994 16.6434 7.27745 16.5509C7.18496 16.4584 7.11826 16.3434 7.08399 16.2171C7.04971 16.0909 7.04904 15.9579 7.08206 15.8313L8.08206 12.0033C8.11125 11.8884 8.16632 11.7817 8.24306 11.6913L17.4701 2.47032C17.6107 2.32987 17.8013 2.25098 18.0001 2.25098C18.1988 2.25098 18.3894 2.32987 18.5301 2.47032L21.3591 5.29832C21.3949 5.33432 21.4271 5.37386 21.4551 5.41632ZM19.7681 5.82832L18.0001 4.06132L9.48206 12.5793L8.85706 14.9723L11.2501 14.3473L19.7681 5.82832Z"/>
<path d="M19.6411 17.1603C19.9144 14.8243 20.0017 12.4702 19.9021 10.1203C19.8999 10.065 19.9092 10.0097 19.9293 9.95812C19.9494 9.90651 19.98 9.85959 20.0191 9.82032L21.0031 8.83632C21.0299 8.80928 21.0641 8.79057 21.1013 8.78246C21.1386 8.77435 21.1774 8.77717 21.2131 8.79058C21.2488 8.80399 21.2799 8.82743 21.3026 8.85807C21.3253 8.88871 21.3386 8.92526 21.3411 8.96332C21.5263 11.7546 21.456 14.5569 21.1311 17.3353C20.8951 19.3573 19.2711 20.9423 17.2581 21.1673C13.7634 21.5543 10.2367 21.5543 6.74206 21.1673C4.73006 20.9423 3.10506 19.3573 2.86906 17.3353C2.45446 13.7907 2.45446 10.2099 2.86906 6.66532C3.10506 4.64332 4.72906 3.05832 6.74206 2.83332C9.39443 2.5392 12.0668 2.46795 14.7311 2.62032C14.7692 2.62305 14.8057 2.63666 14.8364 2.65953C14.867 2.68239 14.8904 2.71356 14.9039 2.74934C14.9174 2.78511 14.9203 2.824 14.9124 2.86139C14.9044 2.89878 14.8859 2.93311 14.8591 2.96032L13.8661 3.95232C13.8272 3.99107 13.7807 4.02144 13.7297 4.04156C13.6786 4.06168 13.6239 4.07113 13.5691 4.06932C11.3458 3.99374 9.12001 4.07896 6.90906 4.32432C6.263 4.39582 5.65991 4.68304 5.19721 5.13957C4.73451 5.5961 4.43923 6.19528 4.35906 6.84032C3.9581 10.2686 3.9581 13.732 4.35906 17.1603C4.43923 17.8054 4.73451 18.4045 5.19721 18.8611C5.65991 19.3176 6.263 19.6048 6.90906 19.6763C10.2641 20.0513 13.7361 20.0513 17.0921 19.6763C17.7381 19.6048 18.3412 19.3176 18.8039 18.8611C19.2666 18.4045 19.5609 17.8054 19.6411 17.1603Z"/>
</svg>
