<svg width="24" height="24" viewBox="0 0 24 24" fill="currentColor" xmlns="http://www.w3.org/2000/svg">
<path d="M18.5999 4.7998C19.3956 4.7998 20.1586 5.11588 20.7212 5.67848C21.2838 6.24109 21.5999 7.00416 21.5999 7.7998V17.3998C21.5999 18.1955 21.2838 18.9585 20.7212 19.5211C20.1586 20.0837 19.3956 20.3998 18.5999 20.3998H5.3999C4.60425 20.3998 3.84119 20.0837 3.27858 19.5211C2.71597 18.9585 2.3999 18.1955 2.3999 17.3998V7.7998C2.3999 7.00416 2.71597 6.24109 3.27858 5.67848C3.84119 5.11588 4.60425 4.7998 5.3999 4.7998H18.5999ZM20.3999 9.553L12.3047 14.317C12.2282 14.3619 12.1426 14.3893 12.0542 14.3972C11.9658 14.4051 11.8768 14.3933 11.7935 14.3626L11.6951 14.317L3.5999 9.5554V17.3998C3.5999 17.8772 3.78954 18.335 4.12711 18.6726C4.46468 19.0102 4.92251 19.1998 5.3999 19.1998H18.5999C19.0773 19.1998 19.5351 19.0102 19.8727 18.6726C20.2103 18.335 20.3999 17.8772 20.3999 17.3998V9.553ZM18.5999 5.9998H5.3999C4.92251 5.9998 4.46468 6.18945 4.12711 6.52701C3.78954 6.86458 3.5999 7.32242 3.5999 7.7998V8.1622L11.9999 13.1038L20.3999 8.15981V7.7998C20.3999 7.32242 20.2103 6.86458 19.8727 6.52701C19.5351 6.18945 19.0773 5.9998 18.5999 5.9998Z" fill="currentColor"/>
</svg>
