<svg width="24" height="24" viewBox="0 0 24 24" fill="currentColor" xmlns="http://www.w3.org/2000/svg">
<path d="M14.4698 7.53032C14.5385 7.604 14.6213 7.66311 14.7133 7.7041C14.8053 7.74509 14.9046 7.76713 15.0053 7.76891C15.106 7.77068 15.2061 7.75216 15.2994 7.71444C15.3928 7.67672 15.4777 7.62057 15.5489 7.54936C15.6201 7.47814 15.6762 7.3933 15.714 7.29991C15.7517 7.20653 15.7702 7.1065 15.7684 7.00579C15.7667 6.90509 15.7446 6.80578 15.7036 6.71378C15.6626 6.62178 15.6035 6.53898 15.5298 6.47032L12.5298 3.47032C12.3892 3.32987 12.1986 3.25098 11.9998 3.25098C11.8011 3.25098 11.6105 3.32987 11.4698 3.47032L8.46985 6.47032C8.33737 6.61249 8.26524 6.80054 8.26867 6.99484C8.2721 7.18914 8.35081 7.37453 8.48823 7.51194C8.62564 7.64935 8.81102 7.72806 9.00532 7.73149C9.19963 7.73492 9.38767 7.6628 9.52985 7.53032L11.2498 5.81032V14.0003C11.2498 14.1992 11.3289 14.39 11.4695 14.5306C11.6102 14.6713 11.8009 14.7503 11.9998 14.7503C12.1988 14.7503 12.3895 14.6713 12.5302 14.5306C12.6708 14.39 12.7498 14.1992 12.7498 14.0003V5.81032L14.4698 7.53032Z"/>
<path d="M20.75 12C20.75 11.8011 20.671 11.6103 20.5303 11.4697C20.3897 11.329 20.1989 11.25 20 11.25C19.8011 11.25 19.6103 11.329 19.4697 11.4697C19.329 11.6103 19.25 11.8011 19.25 12C19.25 12.9521 19.0625 13.8948 18.6981 14.7745C18.3338 15.6541 17.7997 16.4533 17.1265 17.1265C16.4533 17.7997 15.6541 18.3338 14.7745 18.6981C13.8948 19.0625 12.9521 19.25 12 19.25C11.0479 19.25 10.1052 19.0625 9.22554 18.6981C8.34593 18.3338 7.5467 17.7997 6.87348 17.1265C6.20025 16.4533 5.66622 15.6541 5.30187 14.7745C4.93753 13.8948 4.75 12.9521 4.75 12C4.75 11.8011 4.67098 11.6103 4.53033 11.4697C4.38968 11.329 4.19891 11.25 4 11.25C3.80109 11.25 3.61032 11.329 3.46967 11.4697C3.32902 11.6103 3.25 11.8011 3.25 12C3.25 14.3206 4.17187 16.5462 5.81282 18.1872C7.45376 19.8281 9.67936 20.75 12 20.75C14.3206 20.75 16.5462 19.8281 18.1872 18.1872C19.8281 16.5462 20.75 14.3206 20.75 12Z"/>
</svg>
