<svg width="25" height="24" viewBox="0 0 25 24" fill="none" xmlns="http://www.w3.org/2000/svg">
<g id="icon_blue_24">
<path id="Vector" d="M18.3335 3.1875H6.3335C5.58757 3.1875 4.8722 3.48382 4.34476 4.01126C3.81731 4.53871 3.521 5.25408 3.521 6V18C3.521 18.7459 3.81731 19.4613 4.34476 19.9887C4.8722 20.5162 5.58757 20.8125 6.3335 20.8125H18.3335C19.0794 20.8125 19.7948 20.5162 20.3222 19.9887C20.8497 19.4613 21.146 18.7459 21.146 18V6C21.146 5.25408 20.8497 4.53871 20.3222 4.01126C19.7948 3.48382 19.0794 3.1875 18.3335 3.1875ZM20.021 18C20.021 18.4476 19.8432 18.8768 19.5267 19.1932C19.2103 19.5097 18.781 19.6875 18.3335 19.6875H6.3335C5.88594 19.6875 5.45672 19.5097 5.14025 19.1932C4.82379 18.8768 4.646 18.4476 4.646 18V6C4.646 5.55245 4.82379 5.12323 5.14025 4.80676C5.45672 4.49029 5.88594 4.3125 6.3335 4.3125H18.3335C18.781 4.3125 19.2103 4.49029 19.5267 4.80676C19.8432 5.12323 20.021 5.55245 20.021 6V18ZM9.896 7.875C9.896 8.06042 9.84101 8.24168 9.738 8.39585C9.63498 8.55002 9.48857 8.67018 9.31726 8.74114C9.14596 8.81209 8.95746 8.83066 8.7756 8.79449C8.59374 8.75831 8.4267 8.66902 8.29558 8.53791C8.16447 8.4068 8.07518 8.23975 8.03901 8.0579C8.00284 7.87604 8.0214 7.68754 8.09236 7.51623C8.16332 7.34493 8.28348 7.19851 8.43765 7.0955C8.59182 6.99248 8.77308 6.9375 8.9585 6.9375C9.20714 6.9375 9.44559 7.03627 9.62141 7.21209C9.79722 7.3879 9.896 7.62636 9.896 7.875ZM16.646 7.875C16.646 8.06042 16.591 8.24168 16.488 8.39585C16.385 8.55002 16.2386 8.67018 16.0673 8.74114C15.896 8.81209 15.7075 8.83066 15.5256 8.79449C15.3437 8.75831 15.1767 8.66902 15.0456 8.53791C14.9145 8.4068 14.8252 8.23975 14.789 8.0579C14.7528 7.87604 14.7714 7.68754 14.8424 7.51623C14.9133 7.34493 15.0335 7.19851 15.1876 7.0955C15.3418 6.99248 15.5231 6.9375 15.7085 6.9375C15.9571 6.9375 16.1956 7.03627 16.3714 7.21209C16.5472 7.3879 16.646 7.62636 16.646 7.875ZM9.896 12C9.896 12.1854 9.84101 12.3667 9.738 12.5208C9.63498 12.675 9.48857 12.7952 9.31726 12.8661C9.14596 12.9371 8.95746 12.9557 8.7756 12.9195C8.59374 12.8833 8.4267 12.794 8.29558 12.6629C8.16447 12.5318 8.07518 12.3648 8.03901 12.1829C8.00284 12.001 8.0214 11.8125 8.09236 11.6412C8.16332 11.4699 8.28348 11.3235 8.43765 11.2205C8.59182 11.1175 8.77308 11.0625 8.9585 11.0625C9.20714 11.0625 9.44559 11.1613 9.62141 11.3371C9.79722 11.5129 9.896 11.7514 9.896 12ZM16.646 12C16.646 12.1854 16.591 12.3667 16.488 12.5208C16.385 12.675 16.2386 12.7952 16.0673 12.8661C15.896 12.9371 15.7075 12.9557 15.5256 12.9195C15.3437 12.8833 15.1767 12.794 15.0456 12.6629C14.9145 12.5318 14.8252 12.3648 14.789 12.1829C14.7528 12.001 14.7714 11.8125 14.8424 11.6412C14.9133 11.4699 15.0335 11.3235 15.1876 11.2205C15.3418 11.1175 15.5231 11.0625 15.7085 11.0625C15.9571 11.0625 16.1956 11.1613 16.3714 11.3371C16.5472 11.5129 16.646 11.7514 16.646 12ZM9.896 16.125C9.896 16.3104 9.84101 16.4917 9.738 16.6458C9.63498 16.8 9.48857 16.9202 9.31726 16.9911C9.14596 17.0621 8.95746 17.0807 8.7756 17.0445C8.59374 17.0083 8.4267 16.919 8.29558 16.7879C8.16447 16.6568 8.07518 16.4898 8.03901 16.3079C8.00284 16.126 8.0214 15.9375 8.09236 15.7662C8.16332 15.5949 8.28348 15.4485 8.43765 15.3455C8.59182 15.2425 8.77308 15.1875 8.9585 15.1875C9.20714 15.1875 9.44559 15.2863 9.62141 15.4621C9.79722 15.6379 9.896 15.8764 9.896 16.125ZM16.646 16.125C16.646 16.3104 16.591 16.4917 16.488 16.6458C16.385 16.8 16.2386 16.9202 16.0673 16.9911C15.896 17.0621 15.7075 17.0807 15.5256 17.0445C15.3437 17.0083 15.1767 16.919 15.0456 16.7879C14.9145 16.6568 14.8252 16.4898 14.789 16.3079C14.7528 16.126 14.7714 15.9375 14.8424 15.7662C14.9133 15.5949 15.0335 15.4485 15.1876 15.3455C15.3418 15.2425 15.5231 15.1875 15.7085 15.1875C15.9571 15.1875 16.1956 15.2863 16.3714 15.4621C16.5472 15.6379 16.646 15.8764 16.646 16.125Z" fill="currentColor"/>
</g>
</svg>
