<svg width="20" height="21" viewBox="0 0 20 21" fill="currentColor" xmlns="http://www.w3.org/2000/svg">
<path d="M17.75 8.50032C17.75 8.3014 17.671 8.11064 17.5304 7.96999C17.3897 7.82933 17.1989 7.75032 17 7.75032C16.8011 7.75032 16.6104 7.82933 16.4697 7.96999C16.3291 8.11064 16.25 8.3014 16.25 8.50032H17.75ZM3.75003 8.50032C3.75003 8.3014 3.67101 8.11064 3.53036 7.96999C3.38971 7.82933 3.19894 7.75032 3.00003 7.75032C2.80112 7.75032 2.61035 7.82933 2.4697 7.96999C2.32905 8.11064 2.25003 8.3014 2.25003 8.50032H3.75003ZM18.47 11.0303C18.5387 11.104 18.6215 11.1631 18.7135 11.2041C18.8055 11.2451 18.9048 11.2671 19.0055 11.2689C19.1062 11.2707 19.2062 11.2522 19.2996 11.2144C19.393 11.1767 19.4779 11.1206 19.5491 11.0494C19.6203 10.9781 19.6764 10.8933 19.7142 10.7999C19.7519 10.7065 19.7704 10.6065 19.7686 10.5058C19.7668 10.4051 19.7448 10.3058 19.7038 10.2138C19.6628 10.1218 19.6037 10.039 19.53 9.97032L18.47 11.0303ZM10 1.50032L10.53 0.970317C10.3894 0.829866 10.1988 0.750977 10 0.750977C9.80128 0.750977 9.61066 0.829866 9.47003 0.970317L10 1.50032ZM0.470032 9.97032C0.396345 10.039 0.337243 10.1218 0.296251 10.2138C0.255259 10.3058 0.233217 10.4051 0.23144 10.5058C0.229663 10.6065 0.248188 10.7065 0.285909 10.7999C0.32363 10.8933 0.379774 10.9781 0.450993 11.0494C0.522212 11.1206 0.607046 11.1767 0.700434 11.2144C0.793822 11.2522 0.893851 11.2707 0.994554 11.2689C1.09526 11.2671 1.19457 11.2451 1.28657 11.2041C1.37857 11.1631 1.46137 11.104 1.53003 11.0303L0.470032 9.97032ZM5.00003 20.2503H15V18.7503H5.00003V20.2503ZM17.75 17.5003V8.50032H16.25V17.5003H17.75ZM3.75003 17.5003V8.50032H2.25003V17.5003H3.75003ZM19.53 9.97032L10.53 0.970317L9.47003 2.03032L18.47 11.0303L19.53 9.97032ZM9.47003 0.970317L0.470032 9.97032L1.53003 11.0303L10.53 2.03032L9.47003 0.970317ZM15 20.2503C15.7294 20.2503 16.4289 19.9606 16.9446 19.4449C17.4603 18.9291 17.75 18.2297 17.75 17.5003H16.25C16.25 18.1903 15.69 18.7503 15 18.7503V20.2503ZM5.00003 18.7503C4.31003 18.7503 3.75003 18.1903 3.75003 17.5003H2.25003C2.25003 18.2297 2.53976 18.9291 3.05549 19.4449C3.57121 19.9606 4.27069 20.2503 5.00003 20.2503V18.7503Z"/>
</svg>
