<svg width="24" height="24" viewBox="0 0 24 24" fill="currentColor" xmlns="http://www.w3.org/2000/svg">
<path d="M13.8261 16.1648C14.0607 16.3989 14.4406 16.3986 14.6747 16.164C14.9088 15.9295 14.9084 15.5496 14.6739 15.3155L13.8261 16.1648ZM10.0003 11.4984L9.5761 11.9228L9.57645 11.9231L10.0003 11.4984ZM7.94391 11.4375L7.54556 10.9888L7.54523 10.9891L7.94391 11.4375ZM1.85133 16.0516C1.60368 16.2718 1.58142 16.651 1.8016 16.8987C2.02178 17.1463 2.40103 17.1686 2.64867 16.9484L1.85133 16.0516ZM10.0757 19.8257C9.84142 20.0601 9.84142 20.4399 10.0757 20.6743C10.3101 20.9086 10.6899 20.9086 10.9243 20.6743L10.0757 19.8257ZM16.2816 14.4684L16.7058 14.8927L16.7063 14.8923L16.2816 14.4684ZM18.3023 14.3747L18.6866 13.9139L18.686 13.9134L18.3023 14.3747ZM21.3657 17.7108C21.6202 17.923 21.9985 17.8888 22.2108 17.6343C22.423 17.3798 22.3888 17.0015 22.1343 16.7892L21.3657 17.7108ZM4.5 4.35H19.5V3.15H4.5V4.35ZM19.5 4.35C20.4113 4.35 21.15 5.08873 21.15 6H22.35C22.35 4.42599 21.074 3.15 19.5 3.15V4.35ZM21.15 6V18H22.35V6H21.15ZM21.15 18C21.15 18.9113 20.4113 19.65 19.5 19.65V20.85C21.074 20.85 22.35 19.574 22.35 18H21.15ZM19.5 19.65H4.5V20.85H19.5V19.65ZM4.5 19.65C3.58873 19.65 2.85 18.9113 2.85 18H1.65C1.65 19.574 2.92599 20.85 4.5 20.85V19.65ZM2.85 18V6H1.65V18H2.85ZM2.85 6C2.85 5.08873 3.58873 4.35 4.5 4.35V3.15C2.92599 3.15 1.65 4.42599 1.65 6H2.85ZM16.65 8.25C16.65 8.74706 16.2471 9.15 15.75 9.15V10.35C16.9098 10.35 17.85 9.4098 17.85 8.25H16.65ZM15.75 9.15C15.2529 9.15 14.85 8.74706 14.85 8.25H13.65C13.65 9.4098 14.5902 10.35 15.75 10.35V9.15ZM14.85 8.25C14.85 7.75294 15.2529 7.35 15.75 7.35V6.15C14.5902 6.15 13.65 7.0902 13.65 8.25H14.85ZM15.75 7.35C16.2471 7.35 16.65 7.75294 16.65 8.25H17.85C17.85 7.0902 16.9098 6.15 15.75 6.15V7.35ZM14.6739 15.3155L10.4242 11.0738L9.57645 11.9231L13.8261 16.1648L14.6739 15.3155ZM10.4245 11.0741C10.0459 10.6956 9.53709 10.476 9.00197 10.4601L8.96643 11.6596C9.19576 11.6664 9.41384 11.7605 9.5761 11.9228L10.4245 11.0741ZM9.00197 10.4601C8.46686 10.4443 7.9459 10.6334 7.54556 10.9888L8.34225 11.8862C8.51383 11.7339 8.7371 11.6528 8.96643 11.6596L9.00197 10.4601ZM7.54523 10.9891L1.85133 16.0516L2.64867 16.9484L8.34258 11.8859L7.54523 10.9891ZM10.9243 20.6743L16.7058 14.8927L15.8573 14.0442L10.0757 19.8257L10.9243 20.6743ZM16.7063 14.8923C16.8649 14.7333 17.0772 14.6394 17.3016 14.629L17.246 13.4303C16.7225 13.4546 16.227 13.6737 15.8569 14.0446L16.7063 14.8923ZM17.3016 14.629C17.5259 14.6186 17.746 14.6924 17.9187 14.836L18.686 13.9134C18.2831 13.5783 17.7694 13.406 17.246 13.4303L17.3016 14.629ZM17.9181 14.8355L21.3657 17.7108L22.1343 16.7892L18.6866 13.9139L17.9181 14.8355Z"/>
</svg>
