<svg width="24" height="24" viewBox="0 0 24 24" fill="currentColor" xmlns="http://www.w3.org/2000/svg">
<path d="M14.4702 10.47C14.5388 10.3963 14.6216 10.3372 14.7136 10.2962C14.8056 10.2552 14.9049 10.2332 15.0056 10.2314C15.1063 10.2296 15.2064 10.2482 15.2998 10.2859C15.3931 10.3236 15.478 10.3797 15.5492 10.451C15.6204 10.5222 15.6766 10.607 15.7143 10.7004C15.752 10.7938 15.7705 10.8938 15.7687 10.9945C15.767 11.0952 15.7449 11.1945 15.7039 11.2865C15.6629 11.3785 15.6038 11.4613 15.5302 11.53L12.5302 14.53C12.3895 14.6705 12.1989 14.7493 12.0002 14.7493C11.8014 14.7493 11.6108 14.6705 11.4702 14.53L8.47015 11.53C8.39647 11.4613 8.33736 11.3785 8.29637 11.2865C8.25538 11.1945 8.23334 11.0952 8.23156 10.9945C8.22979 10.8938 8.24831 10.7938 8.28603 10.7004C8.32375 10.607 8.3799 10.5222 8.45112 10.451C8.52233 10.3797 8.60717 10.3236 8.70056 10.2859C8.79394 10.2482 8.89397 10.2296 8.99468 10.2314C9.09538 10.2332 9.19469 10.2552 9.28669 10.2962C9.37869 10.3372 9.46149 10.3963 9.53015 10.47L11.2502 12.19V4C11.2502 3.80109 11.3292 3.61032 11.4698 3.46967C11.6105 3.32902 11.8012 3.25 12.0002 3.25C12.1991 3.25 12.3898 3.32902 12.5305 3.46967C12.6711 3.61032 12.7502 3.80109 12.7502 4V12.19L14.4702 10.47Z"/>
<path d="M20.75 12C20.75 11.8011 20.671 11.6103 20.5303 11.4697C20.3897 11.329 20.1989 11.25 20 11.25C19.8011 11.25 19.6103 11.329 19.4697 11.4697C19.329 11.6103 19.25 11.8011 19.25 12C19.25 12.9521 19.0625 13.8948 18.6981 14.7745C18.3338 15.6541 17.7997 16.4533 17.1265 17.1265C16.4533 17.7997 15.6541 18.3338 14.7745 18.6981C13.8948 19.0625 12.9521 19.25 12 19.25C11.0479 19.25 10.1052 19.0625 9.22554 18.6981C8.34593 18.3338 7.5467 17.7997 6.87348 17.1265C6.20025 16.4533 5.66622 15.6541 5.30187 14.7745C4.93753 13.8948 4.75 12.9521 4.75 12C4.75 11.8011 4.67098 11.6103 4.53033 11.4697C4.38968 11.329 4.19891 11.25 4 11.25C3.80109 11.25 3.61032 11.329 3.46967 11.4697C3.32902 11.6103 3.25 11.8011 3.25 12C3.25 14.3206 4.17187 16.5462 5.81282 18.1872C7.45376 19.8281 9.67936 20.75 12 20.75C14.3206 20.75 16.5462 19.8281 18.1872 18.1872C19.8281 16.5462 20.75 14.3206 20.75 12Z"/>
</svg>
