<svg width="24" height="24" viewBox="0 0 24 24" fill="currentColor" xmlns="http://www.w3.org/2000/svg">
<path d="M9.2093 15.7209C9.2093 15.9676 9.1113 16.2043 8.93684 16.3787C8.76239 16.5532 8.52578 16.6512 8.27907 16.6512C8.03236 16.6512 7.79575 16.5532 7.6213 16.3787C7.44684 16.2043 7.34884 15.9676 7.34884 15.7209C7.34884 15.4742 7.44684 15.2376 7.6213 15.0632C7.79575 14.8887 8.03236 14.7907 8.27907 14.7907C8.52578 14.7907 8.76239 14.8887 8.93684 15.0632C9.1113 15.2376 9.2093 15.4742 9.2093 15.7209ZM12.9302 15.7209C12.9302 15.9676 12.8322 16.2043 12.6578 16.3787C12.4833 16.5532 12.2467 16.6512 12 16.6512C11.7533 16.6512 11.5167 16.5532 11.3422 16.3787C11.1678 16.2043 11.0698 15.9676 11.0698 15.7209C11.0698 15.4742 11.1678 15.2376 11.3422 15.0632C11.5167 14.8887 11.7533 14.7907 12 14.7907C12.2467 14.7907 12.4833 14.8887 12.6578 15.0632C12.8322 15.2376 12.9302 15.4742 12.9302 15.7209ZM15.7209 16.6512C15.9676 16.6512 16.2043 16.5532 16.3787 16.3787C16.5532 16.2043 16.6512 15.9676 16.6512 15.7209C16.6512 15.4742 16.5532 15.2376 16.3787 15.0632C16.2043 14.8887 15.9676 14.7907 15.7209 14.7907C15.4742 14.7907 15.2376 14.8887 15.0632 15.0632C14.8887 15.2376 14.7907 15.4742 14.7907 15.7209C14.7907 15.9676 14.8887 16.2043 15.0632 16.3787C15.2376 16.5532 15.4742 16.6512 15.7209 16.6512Z" fill="currentColor"/>
<path fill-rule="evenodd" clip-rule="evenodd" d="M5.72093 8.27907V9.49116C5.50977 9.50605 5.31163 9.52465 5.12372 9.5507C4.28651 9.66233 3.5814 9.90419 3.0214 10.4633C2.4614 11.0233 2.2214 11.7284 2.10884 12.5656C2 13.3721 2 14.3981 2 15.6698V15.7721C2 17.0437 2 18.0698 2.10884 18.8763C2.22047 19.7135 2.46233 20.4186 3.0214 20.9786C3.5814 21.5386 4.28651 21.7786 5.12372 21.8921C5.93023 22 6.95628 22 8.22791 22H15.7721C17.0437 22 18.0698 22 18.8763 21.8921C19.7135 21.7786 20.4186 21.5386 20.9786 20.9786C21.5386 20.4186 21.7786 19.7135 21.8921 18.8763C22 18.0698 22 17.0437 22 15.7721V15.6698C22 14.3981 22 13.3721 21.8921 12.5656C21.7786 11.7284 21.5386 11.0233 20.9786 10.4633C20.4186 9.90326 19.7135 9.66326 18.8763 9.5507C18.6779 9.52457 18.4787 9.50472 18.2791 9.49116V8.27907C18.2791 6.61376 17.6175 5.01665 16.44 3.8391C15.2624 2.66154 13.6653 2 12 2C10.3347 2 8.73758 2.66154 7.56003 3.8391C6.38247 5.01665 5.72093 6.61376 5.72093 8.27907ZM12 3.39535C10.7048 3.39535 9.46256 3.90988 8.54669 4.82576C7.63081 5.74163 7.11628 6.98383 7.11628 8.27907V9.44465C7.46326 9.44186 7.83442 9.44186 8.22791 9.44186H15.7721C16.1656 9.44186 16.5367 9.44186 16.8837 9.44465V8.27907C16.8837 5.5814 14.6977 3.39535 12 3.39535ZM5.30977 10.933C4.62698 11.0251 4.26605 11.1935 4.00837 11.4502C3.7507 11.7079 3.58326 12.0688 3.49116 12.7526C3.39721 13.4549 3.39535 14.386 3.39535 15.7209C3.39535 17.0558 3.39721 17.987 3.49116 18.6902C3.58326 19.373 3.75163 19.734 4.00837 19.9916C4.26605 20.2493 4.62698 20.4167 5.3107 20.5088C6.01209 20.6028 6.94419 20.6047 8.27907 20.6047H15.7209C17.0558 20.6047 17.987 20.6028 18.6902 20.5088C19.373 20.4167 19.734 20.2484 19.9916 19.9916C20.2493 19.734 20.4167 19.373 20.5088 18.6893C20.6028 17.987 20.6047 17.0558 20.6047 15.7209C20.6047 14.386 20.6028 13.454 20.5088 12.7516C20.4167 12.0688 20.2484 11.7079 19.9916 11.4502C19.734 11.1926 19.373 11.0251 18.6893 10.933C17.987 10.8391 17.0558 10.8372 15.7209 10.8372H8.27907C6.94419 10.8372 6.01209 10.8391 5.30977 10.933Z" fill="currentColor"/>
</svg>
