<svg width="36" height="36" viewBox="0 0 36 36" fill="none" xmlns="http://www.w3.org/2000/svg">
<path d="M1.82075 32.2373C2.82642 32.2374 3.64174 31.424 3.64182 30.4204C3.64191 29.4169 2.82673 28.6033 1.82107 28.6032C0.815408 28.6031 8.70668e-05 29.4166 6.97223e-09 30.4201C-8.70528e-05 31.4237 0.815092 32.2372 1.82075 32.2373Z" fill="currentColor"/>
<path d="M9.79412 34.5599C10.7998 34.56 11.6151 33.7466 11.6152 32.743C11.6153 31.7395 10.8001 30.9259 9.79444 30.9258C8.78877 30.9258 7.97345 31.7392 7.97337 32.7427C7.97328 33.7463 8.78846 34.5599 9.79412 34.5599Z" fill="currentColor"/>
<path fill-rule="evenodd" clip-rule="evenodd" d="M30.435 1.55637C33.7033 0.814758 36.6269 3.73268 35.8831 6.99393L30.6047 30.1392C29.8098 33.6245 25.4792 34.8707 22.9467 32.3431L20.4344 29.8357L25.5773 24.7045C26.2885 23.995 26.2886 22.8445 25.5775 22.1348C24.8665 21.4252 23.7136 21.4251 23.0024 22.1346L17.8594 27.2658L15.0187 30.0999C14.3075 30.8094 13.1546 30.8093 12.4435 30.0996C11.7325 29.39 11.7326 28.2395 12.4438 27.5299L15.2844 24.6958L18.42 21.5676C19.1311 20.858 19.1312 19.7075 18.4202 18.9979C17.7091 18.2882 16.5562 18.2881 15.845 18.9976L12.7096 22.1259L6.8835 27.9385C6.17233 28.6481 5.01939 28.6479 4.30834 27.9383C3.5973 27.2286 3.5974 26.0781 4.30857 25.3686L10.1346 19.556L14.6981 15.003C15.4093 14.2934 15.4094 13.143 14.6983 12.4333C13.9873 11.7236 12.8343 11.7235 12.1232 12.4331L7.55968 16.9861L5.02967 14.461C2.4971 11.9334 3.74677 7.61217 7.23952 6.81964L30.435 1.55637ZM22.81 14.6182C24.481 16.2859 27.1904 16.2861 28.8616 14.6187C30.5329 12.9513 30.5331 10.2476 28.8621 8.57994C27.1912 6.91223 24.4818 6.912 22.8105 8.57942C21.1393 10.2468 21.139 12.9505 22.81 14.6182Z" fill="currentColor"/>
</svg>
