<svg width="24" height="24" viewBox="0 0 24 24" fill="currentColor" xmlns="http://www.w3.org/2000/svg">
<path d="M5.3999 3.59961C4.60425 3.59961 3.84119 3.91568 3.27858 4.47829C2.71597 5.0409 2.3999 5.80396 2.3999 6.59961V17.3996C2.3999 18.1953 2.71597 18.9583 3.27858 19.5209C3.84119 20.0835 4.60425 20.3996 5.3999 20.3996H13.3019C13.3811 20.1764 13.5035 19.9724 13.6583 19.7996C13.5015 19.6248 13.3804 19.421 13.3019 19.1996H5.3999C4.92251 19.1996 4.46468 19.01 4.12711 18.6724C3.78954 18.3348 3.5999 17.877 3.5999 17.3996V9.59961H8.5031C8.98033 9.59919 9.43786 9.40927 9.7751 9.07161L11.6483 7.19961H18.5999C19.0773 7.19961 19.5351 7.38925 19.8727 7.72682C20.2103 8.06438 20.3999 8.52222 20.3999 8.99961V14.3996H21.5999V8.99961C21.5999 8.20396 21.2838 7.4409 20.7212 6.87829C20.1586 6.31568 19.3956 5.99961 18.5999 5.99961H11.6483L9.8639 4.21521C9.66886 4.02003 9.43727 3.8652 9.18236 3.75958C8.92745 3.65395 8.65423 3.59959 8.3783 3.59961H5.3999ZM3.5999 6.59961C3.5999 6.12222 3.78954 5.66438 4.12711 5.32682C4.46468 4.98925 4.92251 4.79961 5.3999 4.79961H8.3783C8.61692 4.79982 8.84568 4.89478 9.0143 5.06361L10.5503 6.59961L8.9279 8.22441C8.87208 8.28009 8.80583 8.32423 8.73294 8.35429C8.66005 8.38435 8.58195 8.39975 8.5031 8.39961H3.5999V6.59961ZM14.9999 15.5996C14.8408 15.5996 14.6882 15.6628 14.5756 15.7753C14.4631 15.8879 14.3999 16.0405 14.3999 16.1996C14.3999 16.3587 14.4631 16.5114 14.5756 16.6239C14.6882 16.7364 14.8408 16.7996 14.9999 16.7996H22.1999C22.359 16.7996 22.5116 16.7364 22.6242 16.6239C22.7367 16.5114 22.7999 16.3587 22.7999 16.1996C22.7999 16.0405 22.7367 15.8879 22.6242 15.7753C22.5116 15.6628 22.359 15.5996 22.1999 15.5996H14.9999ZM14.9999 17.9996C14.8408 17.9996 14.6882 18.0628 14.5756 18.1753C14.4631 18.2879 14.3999 18.4405 14.3999 18.5996C14.3999 18.7587 14.4631 18.9114 14.5756 19.0239C14.6882 19.1364 14.8408 19.1996 14.9999 19.1996H22.1999C22.359 19.1996 22.5116 19.1364 22.6242 19.0239C22.7367 18.9114 22.7999 18.7587 22.7999 18.5996C22.7999 18.4405 22.7367 18.2879 22.6242 18.1753C22.5116 18.0628 22.359 17.9996 22.1999 17.9996H14.9999ZM14.3999 20.9996C14.3999 20.8405 14.4631 20.6879 14.5756 20.5753C14.6882 20.4628 14.8408 20.3996 14.9999 20.3996H22.1999C22.359 20.3996 22.5116 20.4628 22.6242 20.5753C22.7367 20.6879 22.7999 20.8405 22.7999 20.9996C22.7999 21.1587 22.7367 21.3114 22.6242 21.4239C22.5116 21.5364 22.359 21.5996 22.1999 21.5996H14.9999C14.8408 21.5996 14.6882 21.5364 14.5756 21.4239C14.4631 21.3114 14.3999 21.1587 14.3999 20.9996Z"/>
</svg>
