<svg width="32" height="32" viewBox="0 0 32 32" fill="currentColor" xmlns="http://www.w3.org/2000/svg">
<path d="M28.4448 24.088H3.55588C3.32013 24.088 3.09404 23.9897 2.92734 23.8147C2.76064 23.6396 2.66699 23.4022 2.66699 23.1547C2.66699 22.9072 2.76064 22.6698 2.92734 22.4947C3.09404 22.3197 3.32013 22.2214 3.55588 22.2214H28.4448C28.6805 22.2214 28.9066 22.3197 29.0733 22.4947C29.24 22.6698 29.3337 22.9072 29.3337 23.1547C29.3337 23.4022 29.24 23.6396 29.0733 23.8147C28.9066 23.9897 28.6805 24.088 28.4448 24.088Z" fill="currentColor"/>
<path d="M28.4448 16.9773H3.55588C3.32013 16.9773 3.09404 16.879 2.92734 16.704C2.76064 16.5289 2.66699 16.2915 2.66699 16.044C2.66699 15.7965 2.76064 15.5591 2.92734 15.384C3.09404 15.209 3.32013 15.1107 3.55588 15.1107H28.4448C28.6805 15.1107 28.9066 15.209 29.0733 15.384C29.24 15.5591 29.3337 15.7965 29.3337 16.044C29.3337 16.2915 29.24 16.5289 29.0733 16.704C28.9066 16.879 28.6805 16.9773 28.4448 16.9773Z" fill="currentColor"/>
<path d="M28.4448 9.86667H3.55588C3.32013 9.86667 3.09404 9.76833 2.92734 9.5933C2.76064 9.41827 2.66699 9.18087 2.66699 8.93333C2.66699 8.6858 2.76064 8.4484 2.92734 8.27337C3.09404 8.09833 3.32013 8 3.55588 8H28.4448C28.6805 8 28.9066 8.09833 29.0733 8.27337C29.24 8.4484 29.3337 8.6858 29.3337 8.93333C29.3337 9.18087 29.24 9.41827 29.0733 9.5933C28.9066 9.76833 28.6805 9.86667 28.4448 9.86667Z" fill="currentColor"/>
</svg>
