<svg width="24" height="24" viewBox="0 0 24 24" fill="currentColor" xmlns="http://www.w3.org/2000/svg">
<path d="M5.25 8.36364C5.05109 8.36364 4.86032 8.44026 4.71967 8.57665C4.57902 8.71304 4.5 8.89802 4.5 9.09091C4.5 9.28379 4.57902 9.46878 4.71967 9.60517C4.86032 9.74156 5.05109 9.81818 5.25 9.81818H15.75C15.9489 9.81818 16.1397 9.74156 16.2803 9.60517C16.421 9.46878 16.5 9.28379 16.5 9.09091C16.5 8.89802 16.421 8.71304 16.2803 8.57665C16.1397 8.44026 15.9489 8.36364 15.75 8.36364H5.25ZM5.25 11.2727C5.05109 11.2727 4.86032 11.3494 4.71967 11.4857C4.57902 11.6221 4.5 11.8071 4.5 12V14.9091C4.5 15.102 4.57902 15.287 4.71967 15.4234C4.86032 15.5597 5.05109 15.6364 5.25 15.6364H8.25C8.44891 15.6364 8.63968 15.5597 8.78033 15.4234C8.92098 15.287 9 15.102 9 14.9091V12C9 11.8071 8.92098 11.6221 8.78033 11.4857C8.63968 11.3494 8.44891 11.2727 8.25 11.2727H5.25ZM6 14.1818V12.7273H7.5V14.1818H6ZM11.25 11.2727C11.0511 11.2727 10.8603 11.3494 10.7197 11.4857C10.579 11.6221 10.5 11.8071 10.5 12C10.5 12.1929 10.579 12.3779 10.7197 12.5143C10.8603 12.6507 11.0511 12.7273 11.25 12.7273H15.75C15.9489 12.7273 16.1397 12.6507 16.2803 12.5143C16.421 12.3779 16.5 12.1929 16.5 12C16.5 11.8071 16.421 11.6221 16.2803 11.4857C16.1397 11.3494 15.9489 11.2727 15.75 11.2727H11.25ZM11.25 14.1818C11.0511 14.1818 10.8603 14.2584 10.7197 14.3948C10.579 14.5312 10.5 14.7162 10.5 14.9091C10.5 15.102 10.579 15.287 10.7197 15.4234C10.8603 15.5597 11.0511 15.6364 11.25 15.6364H15.75C15.9489 15.6364 16.1397 15.5597 16.2803 15.4234C16.421 15.287 16.5 15.102 16.5 14.9091C16.5 14.7162 16.421 14.5312 16.2803 14.3948C16.1397 14.2584 15.9489 14.1818 15.75 14.1818H11.25ZM1.5 6.90909C1.5 6.13755 1.81607 5.39761 2.37868 4.85205C2.94129 4.30649 3.70435 4 4.5 4H16.5C17.2956 4 18.0587 4.30649 18.6213 4.85205C19.1839 5.39761 19.5 6.13755 19.5 6.90909C20.2956 6.90909 21.0587 7.21558 21.6213 7.76114C22.1839 8.3067 22.5 9.04664 22.5 9.81818V16.3636C22.5 17.3281 22.1049 18.253 21.4016 18.9349C20.6984 19.6169 19.7446 20 18.75 20H5.25C4.25544 20 3.30161 19.6169 2.59835 18.9349C1.89509 18.253 1.5 17.3281 1.5 16.3636V6.90909ZM18.75 16.3636C18.5511 16.3636 18.3603 16.287 18.2197 16.1506C18.079 16.0142 18 15.8292 18 15.6364V6.90909C18 6.52332 17.842 6.15335 17.5607 5.88057C17.2794 5.60779 16.8978 5.45455 16.5 5.45455H4.5C4.10218 5.45455 3.72064 5.60779 3.43934 5.88057C3.15804 6.15335 3 6.52332 3 6.90909V16.3636C3 16.9423 3.23705 17.4972 3.65901 17.9064C4.08097 18.3156 4.65326 18.5455 5.25 18.5455H18.75C19.3467 18.5455 19.919 18.3156 20.341 17.9064C20.7629 17.4972 21 16.9423 21 16.3636V9.81818C21 9.43241 20.842 9.06244 20.5607 8.78966C20.2794 8.51688 19.8978 8.36364 19.5 8.36364V15.6364C19.5 15.8292 19.421 16.0142 19.2803 16.1506C19.1397 16.287 18.9489 16.3636 18.75 16.3636Z"/>
</svg>
