<svg width="24" height="24" viewBox="0 0 24 24" fill="currentColor" xmlns="http://www.w3.org/2000/svg">
<g clip-path="url(#clip0_2659_99)">
<path fill-rule="evenodd" clip-rule="evenodd" d="M17.3751 2.68949C15.5951 1.66177 13.4797 1.38327 11.4943 1.91526C9.50889 2.44724 7.81615 3.74613 6.78844 5.52618L6.43643 6.13586C6.08794 6.73936 5.56861 7.2262 4.94388 7.53504L3.08905 8.4537C0.933773 9.51875 0.456387 12.3816 2.1487 14.0884C2.69955 14.6443 3.27246 15.176 3.8652 15.6834L3.86443 15.6887C3.50354 17.8498 4.56572 20.12 6.62513 21.309C8.68454 22.498 11.1817 22.2828 12.8737 20.8902L12.8779 20.8869C13.6147 21.1472 14.3618 21.3771 15.1174 21.5759C17.4417 22.1881 19.6824 20.3433 19.5271 17.9442L19.3944 15.878C19.3495 15.1826 19.5114 14.4894 19.8598 13.8859L20.2118 13.2762C21.2395 11.4961 21.518 9.38073 20.9861 7.39533C20.4541 5.40994 19.1552 3.7172 17.3751 2.68949ZM11.1553 20.2145C9.07882 19.3251 7.11558 18.1916 5.30706 16.838C5.41231 18.0777 6.13758 19.2955 7.37513 20.01C8.61268 20.7245 10.0291 20.7432 11.1553 20.2145ZM8.08747 6.27618C8.91627 4.84066 10.2814 3.79316 11.8825 3.36415C13.4836 2.93513 15.1896 3.15972 16.6251 3.98852C18.0607 4.81732 19.1081 6.18244 19.5372 7.78356C19.9662 9.38468 19.7416 11.0907 18.9128 12.5262L18.5608 13.1359C18.0643 13.9958 17.8334 14.9837 17.8976 15.9746L18.0303 18.0407C18.0511 18.3604 17.9957 18.6804 17.8685 18.9744C17.7412 19.2684 17.5459 19.5279 17.2986 19.7316C17.0514 19.9352 16.7592 20.0771 16.4462 20.1456C16.1333 20.214 15.8086 20.2071 15.4989 20.1253C10.8436 18.9001 6.60125 16.4508 3.21255 13.0318C2.98723 12.8044 2.81916 12.5267 2.72217 12.2216C2.62518 11.9166 2.60206 11.5928 2.6547 11.277C2.70734 10.9613 2.83424 10.6625 3.02495 10.4054C3.21566 10.1483 3.46472 9.94012 3.75162 9.7981L5.60955 8.88008C6.49948 8.43974 7.23919 7.74586 7.73547 6.88586L8.08747 6.27618Z"/>
</g>
<defs>
<clipPath id="clip0_2659_99">
<rect width="24" height="24" fill="white"/>
</clipPath>
</defs>
</svg>
