<svg width="24" height="24" viewBox="0 0 24 24" fill="currentColor" xmlns="http://www.w3.org/2000/svg">
<path d="M6.23077 3.53846C5.51672 3.53846 4.83193 3.82211 4.32702 4.32702C3.82211 4.83193 3.53846 5.51672 3.53846 6.23077V17.7692C3.53846 18.4833 3.82211 19.1681 4.32702 19.673C4.83193 20.1779 5.51672 20.4615 6.23077 20.4615H17.7692C18.4833 20.4615 19.1681 20.1779 19.673 19.673C20.1779 19.1681 20.4615 18.4833 20.4615 17.7692V14.3077C20.4615 14.1037 20.5426 13.908 20.6868 13.7638C20.8311 13.6195 21.0268 13.5385 21.2308 13.5385C21.4348 13.5385 21.6304 13.6195 21.7747 13.7638C21.919 13.908 22 14.1037 22 14.3077V17.7692C22 18.8913 21.5543 19.9674 20.7608 20.7608C19.9674 21.5543 18.8913 22 17.7692 22H6.23077C5.1087 22 4.03259 21.5543 3.23916 20.7608C2.44574 19.9674 2 18.8913 2 17.7692V6.23077C2 5.1087 2.44574 4.03259 3.23916 3.23916C4.03259 2.44574 5.1087 2 6.23077 2H9.69231C9.89632 2 10.092 2.08104 10.2362 2.2253C10.3805 2.36956 10.4615 2.56522 10.4615 2.76923C10.4615 2.97324 10.3805 3.1689 10.2362 3.31316C10.092 3.45742 9.89632 3.53846 9.69231 3.53846H6.23077ZM13.5385 2.76923C13.5385 2.56522 13.6195 2.36956 13.7638 2.2253C13.908 2.08104 14.1037 2 14.3077 2H21.2308C21.4348 2 21.6304 2.08104 21.7747 2.2253C21.919 2.36956 22 2.56522 22 2.76923V9.69231C22 9.89632 21.919 10.092 21.7747 10.2362C21.6304 10.3805 21.4348 10.4615 21.2308 10.4615C21.0268 10.4615 20.8311 10.3805 20.6868 10.2362C20.5426 10.092 20.4615 9.89632 20.4615 9.69231V4.62615L14.8515 10.2362C14.7065 10.3763 14.5122 10.4538 14.3105 10.4521C14.1088 10.4503 13.9158 10.3694 13.7732 10.2268C13.6306 10.0842 13.5497 9.89123 13.5479 9.68954C13.5462 9.48785 13.6237 9.29354 13.7638 9.14846L19.3738 3.53846H14.3077C14.1037 3.53846 13.908 3.45742 13.7638 3.31316C13.6195 3.1689 13.5385 2.97324 13.5385 2.76923Z"/>
</svg>
