<svg width="32" height="32" viewBox="0 0 32 32" fill="currentColor" xmlns="http://www.w3.org/2000/svg">
<path fill-rule="evenodd" clip-rule="evenodd" d="M8.00001 22.7332C9.77482 22.7332 11.3889 23.2421 12.5763 23.9586C13.1689 24.3179 13.6756 24.7396 14.0415 25.1979C14.4015 25.6496 14.6667 26.1894 14.6667 26.7665C14.6667 27.3862 14.3622 27.8746 13.9237 28.2229C13.5089 28.5529 12.9615 28.7714 12.38 28.924C11.2111 29.2298 9.65112 29.3332 8.00001 29.3332C6.3489 29.3332 4.7889 29.2305 3.62001 28.924C3.03853 28.7714 2.49112 28.5529 2.07631 28.2229C1.63705 27.8738 1.33334 27.3862 1.33334 26.7665C1.33334 26.1894 1.59853 25.6496 1.95853 25.1979C2.32445 24.7396 2.83038 24.3179 3.42371 23.9586C4.61112 23.2421 6.22594 22.7332 8.00001 22.7332ZM8.00001 24.1998C6.50149 24.1998 5.15334 24.6325 4.19557 25.2111C3.71631 25.5 3.35483 25.8139 3.12149 26.1072C2.88149 26.4079 2.81482 26.6352 2.81482 26.7665C2.81482 26.856 2.84223 26.9506 3.00371 27.0789C3.18816 27.2256 3.5089 27.3774 3.99927 27.5057C4.97557 27.7624 6.37853 27.8665 8.00001 27.8665C9.62223 27.8665 11.0245 27.7616 12 27.5057C12.4911 27.3774 12.8119 27.2256 12.9963 27.0789C13.1578 26.9506 13.1852 26.856 13.1852 26.7665C13.1852 26.6345 13.1185 26.4079 12.8793 26.1072C12.6452 25.8139 12.2837 25.5 11.8045 25.2111C10.8467 24.6318 9.49853 24.1998 8.00001 24.1998ZM8.00001 14.6665C8.98229 14.6665 9.92435 15.0528 10.6189 15.7404C11.3135 16.4281 11.7037 17.3607 11.7037 18.3332C11.7037 19.3056 11.3135 20.2383 10.6189 20.9259C9.92435 21.6135 8.98229 21.9998 8.00001 21.9998C7.01773 21.9998 6.07568 21.6135 5.3811 20.9259C4.68652 20.2383 4.29631 19.3056 4.29631 18.3332C4.29631 17.3607 4.68652 16.4281 5.3811 15.7404C6.07568 15.0528 7.01773 14.6665 8.00001 14.6665ZM8.00001 16.1332C7.70818 16.1332 7.41921 16.1901 7.1496 16.3006C6.87999 16.4112 6.63501 16.5732 6.42866 16.7775C6.22231 16.9818 6.05862 17.2244 5.94694 17.4913C5.83527 17.7582 5.77779 18.0443 5.77779 18.3332C5.77779 18.6221 5.83527 18.9082 5.94694 19.1751C6.05862 19.442 6.22231 19.6845 6.42866 19.8888C6.63501 20.0931 6.87999 20.2551 7.1496 20.3657C7.41921 20.4763 7.70818 20.5332 8.00001 20.5332C8.58938 20.5332 9.15461 20.3014 9.57136 19.8888C9.98811 19.4762 10.2222 18.9166 10.2222 18.3332C10.2222 17.7497 9.98811 17.1901 9.57136 16.7775C9.15461 16.365 8.58938 16.1332 8.00001 16.1332Z" fill="currentColor"/>
<path fill-rule="evenodd" clip-rule="evenodd" d="M24 22.7332C25.7748 22.7332 27.3889 23.2421 28.5763 23.9586C29.1689 24.3179 29.6756 24.7396 30.0415 25.1979C30.4015 25.6496 30.6667 26.1894 30.6667 26.7665C30.6667 27.3862 30.3622 27.8746 29.9237 28.2229C29.5089 28.5529 28.9615 28.7714 28.38 28.924C27.2111 29.2298 25.6511 29.3332 24 29.3332C22.3489 29.3332 20.7889 29.2305 19.62 28.924C19.0385 28.7714 18.4911 28.5529 18.0763 28.2229C17.637 27.8738 17.3333 27.3862 17.3333 26.7665C17.3333 26.1894 17.5985 25.6496 17.9585 25.1979C18.3245 24.7396 18.8304 24.3179 19.4237 23.9586C20.6111 23.2421 22.2259 22.7332 24 22.7332ZM24 24.1998C22.5015 24.1998 21.1533 24.6325 20.1956 25.2111C19.7163 25.5 19.3548 25.8139 19.1215 26.1072C18.8815 26.4079 18.8148 26.6352 18.8148 26.7665C18.8148 26.856 18.8422 26.9506 19.0037 27.0789C19.1882 27.2256 19.5089 27.3774 19.9993 27.5057C20.9756 27.7624 22.3785 27.8665 24 27.8665C25.6222 27.8665 27.0245 27.7616 28 27.5057C28.4911 27.3774 28.8119 27.2256 28.9963 27.0789C29.1578 26.9506 29.1852 26.856 29.1852 26.7665C29.1852 26.6345 29.1185 26.4079 28.8793 26.1072C28.6452 25.8139 28.2837 25.5 27.8045 25.2111C26.8467 24.6318 25.4985 24.1998 24 24.1998ZM24 14.6665C24.9823 14.6665 25.9243 15.0528 26.6189 15.7404C27.3135 16.4281 27.7037 17.3607 27.7037 18.3332C27.7037 19.3056 27.3135 20.2383 26.6189 20.9259C25.9243 21.6135 24.9823 21.9998 24 21.9998C23.0177 21.9998 22.0757 21.6135 21.3811 20.9259C20.6865 20.2383 20.2963 19.3056 20.2963 18.3332C20.2963 17.3607 20.6865 16.4281 21.3811 15.7404C22.0757 15.0528 23.0177 14.6665 24 14.6665ZM24 16.1332C23.7082 16.1332 23.4192 16.1901 23.1496 16.3006C22.88 16.4112 22.635 16.5732 22.4287 16.7775C22.2223 16.9818 22.0586 17.2244 21.9469 17.4913C21.8353 17.7582 21.7778 18.0443 21.7778 18.3332C21.7778 18.6221 21.8353 18.9082 21.9469 19.1751C22.0586 19.442 22.2223 19.6845 22.4287 19.8888C22.635 20.0931 22.88 20.2551 23.1496 20.3657C23.4192 20.4763 23.7082 20.5332 24 20.5332C24.5894 20.5332 25.1546 20.3014 25.5714 19.8888C25.9881 19.4762 26.2222 18.9166 26.2222 18.3332C26.2222 17.7497 25.9881 17.1901 25.5714 16.7775C25.1546 16.365 24.5894 16.1332 24 16.1332Z" fill="currentColor"/>
<path d="M20.8762 11.9878C21.1958 11.3301 21.3517 10.6093 21.3315 9.88301C21.3112 9.15673 21.1154 8.4451 20.7596 7.80497C20.4039 7.16484 19.898 6.61395 19.2825 6.19634C18.667 5.77872 17.9589 5.50595 17.2148 5.39982C16.9515 4.83955 16.576 4.3352 16.1099 3.91589C15.6437 3.49657 15.0962 3.17061 14.4989 2.95681C13.9016 2.74301 13.2664 2.64561 12.6299 2.67024C11.9934 2.69487 11.3683 2.84103 10.7906 3.1003C10.213 3.35957 9.69419 3.72679 9.26426 4.18078C8.83433 4.63477 8.50176 5.16652 8.28576 5.74534C8.06976 6.32415 7.97461 6.93856 8.00579 7.5531C8.03698 8.16763 8.19388 8.77011 8.46745 9.32574L8.05176 10.7322C8.00091 10.9036 7.99854 11.0851 8.04489 11.2577C8.09124 11.4303 8.18462 11.5878 8.31531 11.7138C8.44601 11.8397 8.60926 11.9296 8.78808 11.9739C8.9669 12.0183 9.15476 12.0156 9.33214 11.9661L10.7882 11.5646C11.2134 11.7561 11.6652 11.8869 12.1294 11.9528C12.3954 12.5114 12.7731 13.0136 13.2409 13.4306C13.7086 13.8475 14.2571 14.171 14.8549 14.3823C15.4526 14.5937 16.0877 14.6887 16.7236 14.662C17.3595 14.6353 17.9836 14.4873 18.5601 14.2266L20.0161 14.6281C20.1933 14.677 20.3808 14.6792 20.5592 14.6346C20.7376 14.5899 20.9003 14.5 21.0306 14.3741C21.1609 14.2483 21.254 14.091 21.3003 13.9187C21.3465 13.7464 21.3442 13.5653 21.2936 13.3942L20.8762 11.9878ZM10.8554 10.187C10.7913 10.187 10.7275 10.1956 10.6659 10.2125L9.54687 10.5214L9.86668 9.44054C9.91655 9.27245 9.89592 9.09216 9.80926 8.93864C9.41311 8.23594 9.29236 7.41888 9.46915 6.63717C9.64593 5.85547 10.1084 5.16147 10.7719 4.68234C11.4353 4.20321 12.2553 3.97103 13.0815 4.02834C13.9078 4.08565 14.685 4.42862 15.2707 4.9944C15.8565 5.56018 16.2115 6.31089 16.2709 7.10897C16.3302 7.90705 16.0898 8.69906 15.5938 9.33988C15.0977 9.9807 14.3792 10.4274 13.5699 10.5982C12.7607 10.7689 11.9148 10.6523 11.1873 10.2697C11.0856 10.2155 10.9714 10.1867 10.8554 10.187ZM19.477 12.1026L19.7968 13.1834L18.6778 12.8745C18.5037 12.8264 18.3171 12.8463 18.1581 12.93C17.4164 13.3198 16.5525 13.4332 15.73 13.2487C14.9075 13.0642 14.1837 12.5946 13.6958 11.929C14.8928 11.7201 15.9638 11.0817 16.6938 10.1418C17.4238 9.20198 17.7588 8.03023 17.6316 6.86171C18.1055 7.01917 18.5381 7.27458 18.8992 7.61013C19.2604 7.94569 19.5414 8.35331 19.7227 8.80455C19.9039 9.2558 19.9811 9.73982 19.9488 10.2228C19.9165 10.7059 19.7754 11.1763 19.5356 11.6012C19.4485 11.7546 19.4275 11.9343 19.477 12.1026Z" fill="currentColor"/>
</svg>
