<svg width="24" height="24" viewBox="0 0 24 24" fill="currentColor" xmlns="http://www.w3.org/2000/svg">
<path fill-rule="evenodd" clip-rule="evenodd" d="M14.3848 15.4463C13.037 16.5232 11.328 17.0432 9.60873 16.8994C7.8895 16.7556 6.29059 15.9589 5.14039 14.673C3.99019 13.3872 3.37601 11.7097 3.424 9.98511C3.47199 8.26054 4.17849 6.61981 5.39842 5.39988C6.61834 4.17996 8.25908 3.47345 9.98364 3.42547C11.7082 3.37748 13.3857 3.99166 14.6716 5.14186C15.9574 6.29206 16.7541 7.89097 16.8979 9.6102C17.0417 11.3294 16.5218 13.0385 15.4448 14.3863L20.6008 19.5413C20.6745 19.61 20.7336 19.6928 20.7746 19.7848C20.8156 19.8768 20.8377 19.9761 20.8394 20.0768C20.8412 20.1775 20.8227 20.2775 20.785 20.3709C20.7472 20.4643 20.6911 20.5491 20.6199 20.6203C20.5487 20.6916 20.4638 20.7477 20.3704 20.7854C20.2771 20.8232 20.177 20.8417 20.0763 20.8399C19.9756 20.8381 19.8763 20.8161 19.7843 20.7751C19.6923 20.7341 19.6095 20.675 19.5408 20.6013L14.3848 15.4463ZM6.45884 13.8843C5.72488 13.1503 5.225 12.2151 5.02236 11.1971C4.81972 10.179 4.92342 9.12374 5.32036 8.16461C5.71729 7.20547 6.38965 6.38553 7.25246 5.80841C8.11526 5.23129 9.12979 4.92289 10.1678 4.92219C11.2058 4.92149 12.2208 5.22853 13.0844 5.80449C13.9479 6.38045 14.6214 7.19948 15.0196 8.15808C15.4179 9.11668 15.523 10.1718 15.3217 11.1901C15.1204 12.2085 14.6218 13.1443 13.8888 13.8793L13.8838 13.8843L13.8788 13.8883C12.8939 14.8709 11.5593 15.4224 10.168 15.4217C8.77676 15.4209 7.44269 14.868 6.45884 13.8843Z"/>
</svg>
