<svg width="24" height="24" viewBox="0 0 24 24" fill="currentColor" xmlns="http://www.w3.org/2000/svg">
<path fill-rule="evenodd" clip-rule="evenodd" d="M3.73608 4.74452C4.045 2.66538 5.70195 1 7.8045 1C9.0636 1 10.1757 1.60848 10.9209 2.53713C10.9811 2.60875 11.0265 2.6917 11.0542 2.78109C11.0819 2.87048 11.0915 2.96452 11.0824 3.05767C11.0732 3.15082 11.0455 3.2412 11.001 3.3235C10.9564 3.4058 10.8958 3.47836 10.8228 3.5369C10.7498 3.59545 10.6658 3.6388 10.5757 3.66441C10.4857 3.69003 10.3915 3.69738 10.2986 3.68604C10.2057 3.6747 10.116 3.6449 10.0347 3.59839C9.95351 3.55189 9.88241 3.48961 9.82561 3.41522C9.31822 2.78239 8.59366 2.4042 7.80356 2.4042C6.56225 2.4042 5.44452 3.36841 5.15806 4.75014C5.28566 4.76636 5.40636 4.81733 5.50696 4.89748C5.60757 4.97763 5.68423 5.08387 5.72857 5.20462C5.77291 5.32537 5.78322 5.45597 5.75839 5.58218C5.73355 5.70839 5.67452 5.82536 5.58774 5.9203L4.90437 6.66921C4.83858 6.7413 4.75848 6.79889 4.66918 6.83829C4.57988 6.87769 4.48335 6.89804 4.38575 6.89804C4.28815 6.89804 4.19162 6.87769 4.10232 6.83829C4.01303 6.79889 3.93293 6.7413 3.86714 6.66921L3.18376 5.9203C3.08996 5.81764 3.02877 5.68943 3.00793 5.55194C2.98709 5.41445 3.00755 5.27387 3.06671 5.14803C3.12588 5.02218 3.22108 4.91674 3.34025 4.84507C3.45941 4.7734 3.59718 4.73779 3.73608 4.74452ZM13.2986 3.57436C13.2989 3.48216 13.3173 3.39091 13.3528 3.30582C13.3883 3.22073 13.4402 3.14347 13.5056 3.07845C13.571 3.01343 13.6485 2.96192 13.7338 2.92686C13.8191 2.8918 13.9104 2.87389 14.0026 2.87413C15.4508 2.87788 16.6238 2.90222 17.5665 3.06136C18.5288 3.22518 19.3189 3.54066 19.9536 4.17535C20.6538 4.87652 20.9646 5.7649 21.1125 6.86205C21.2558 7.92924 21.2558 9.29131 21.2558 11.0119V14.8613C21.2558 16.5819 21.2558 17.9449 21.1125 19.0111C20.9646 20.1083 20.6538 20.9967 19.9536 21.6978C19.2524 22.3981 18.3641 22.7089 17.2669 22.8568C16.1997 23 14.8376 23 13.117 23H13.0122C11.2916 23 9.92858 23 8.86233 22.8568C7.76518 22.7089 6.87679 22.3981 6.17563 21.6978C5.47541 20.9967 5.16461 20.1083 5.0167 19.0111C4.87348 17.944 4.87348 16.5819 4.87348 14.8613V12.0014C4.87348 11.8152 4.94745 11.6366 5.07912 11.5049C5.21078 11.3733 5.38937 11.2993 5.57557 11.2993C5.76178 11.2993 5.94036 11.3733 6.07203 11.5049C6.2037 11.6366 6.27767 11.8152 6.27767 12.0014V14.8079C6.27767 16.5931 6.27954 17.8616 6.40873 18.8239C6.53511 19.7647 6.77288 20.3077 7.16887 20.7037C7.56485 21.0997 8.10781 21.3374 9.04955 21.4638C10.0119 21.593 11.2794 21.5949 13.0646 21.5949C14.8498 21.5949 16.1173 21.593 17.0806 21.4638C18.0214 21.3374 18.5644 21.0997 18.9604 20.7037C19.3563 20.3077 19.5941 19.7647 19.7205 18.823C19.8497 17.8616 19.8516 16.5931 19.8516 14.8079V11.0634C19.8516 9.2782 19.8497 8.01068 19.7205 7.0474C19.5941 6.10659 19.3563 5.56364 18.9604 5.16765C18.6 4.80724 18.1197 4.57883 17.3315 4.44496C16.5227 4.30828 15.4658 4.28207 13.9989 4.27646C13.813 4.27596 13.6349 4.20177 13.5036 4.07016C13.3724 3.93854 13.2986 3.76024 13.2986 3.57436ZM11.4451 3.99655C11.5427 3.9965 11.6392 4.01678 11.7285 4.05611C11.8178 4.09544 11.8979 4.15295 11.9637 4.22497L12.6471 4.97387C12.7409 5.07654 12.8021 5.20474 12.8229 5.34223C12.8438 5.47972 12.8233 5.6203 12.7642 5.74615C12.705 5.872 12.6098 5.97744 12.4906 6.04911C12.3714 6.12078 12.2337 6.15545 12.0948 6.14872C11.7877 8.22786 10.1308 9.89324 8.02823 9.89324C6.85807 9.89324 5.81148 9.36713 5.07194 8.54521C5.01022 8.47667 4.96261 8.39666 4.93182 8.30972C4.90104 8.22278 4.88767 8.13064 4.8925 8.03854C4.89732 7.94644 4.92024 7.85619 4.95994 7.77294C4.99965 7.6897 5.05535 7.61509 5.12389 7.55338C5.19243 7.49167 5.27245 7.44406 5.35938 7.41327C5.44632 7.38248 5.53847 7.36912 5.63057 7.37394C5.72267 7.37877 5.81291 7.40169 5.89616 7.44139C5.9794 7.48109 6.05401 7.5368 6.11572 7.60534C6.61561 8.1614 7.29337 8.48904 8.02823 8.48904C9.26954 8.48904 10.3873 7.52483 10.6737 6.1431C10.5461 6.12688 10.4254 6.07591 10.3248 5.99576C10.2242 5.91561 10.1476 5.80937 10.1032 5.68862C10.0589 5.56787 10.0486 5.43727 10.0734 5.31106C10.0982 5.18485 10.1573 5.06788 10.2441 4.97294L10.9274 4.22403C10.9933 4.15201 11.0734 4.09451 11.1627 4.05518C11.252 4.01585 11.3485 3.99556 11.446 3.99562L11.4451 3.99655ZM9.55413 19.4886C9.55413 19.3024 9.6281 19.1238 9.75977 18.9921C9.89144 18.8604 10.07 18.7865 10.2562 18.7865H15.873C16.0592 18.7865 16.2378 18.8604 16.3695 18.9921C16.5011 19.1238 16.5751 19.3024 16.5751 19.4886C16.5751 19.6748 16.5011 19.8534 16.3695 19.985C16.2378 20.1167 16.0592 20.1907 15.873 20.1907H10.2562C10.07 20.1907 9.89144 20.1167 9.75977 19.985C9.6281 19.8534 9.55413 19.6748 9.55413 19.4886Z"/>
</svg>
