<svg width="24" height="24" viewBox="0 0 24 24" fill="currentColor" xmlns="http://www.w3.org/2000/svg">
<path d="M16.03 10.03C16.1037 9.96134 16.1628 9.87854 16.2038 9.78654C16.2448 9.69454 16.2668 9.59522 16.2686 9.49452C16.2704 9.39382 16.2518 9.29379 16.2141 9.2004C16.1764 9.10701 16.1203 9.02218 16.049 8.95096C15.9778 8.87974 15.893 8.8236 15.7996 8.78588C15.7062 8.74816 15.6062 8.72963 15.5055 8.73141C15.4048 8.73319 15.3055 8.75523 15.2135 8.79622C15.1215 8.83721 15.0387 8.89631 14.97 8.97L10.5 13.44L9.03 11.97C8.88782 11.8375 8.69978 11.7654 8.50548 11.7688C8.31118 11.7723 8.12579 11.851 7.98838 11.9884C7.85097 12.1258 7.77225 12.3112 7.76883 12.5055C7.7654 12.6998 7.83752 12.8878 7.97 13.03L9.97 15.03C10.1106 15.1705 10.3012 15.2493 10.5 15.2493C10.6988 15.2493 10.8894 15.1705 11.03 15.03L16.03 10.03Z"/>
<path fill-rule="evenodd" clip-rule="evenodd" d="M12 1.25C6.063 1.25 1.25 6.063 1.25 12C1.25 17.937 6.063 22.75 12 22.75C17.937 22.75 22.75 17.937 22.75 12C22.75 6.063 17.937 1.25 12 1.25ZM2.75 12C2.75 9.54675 3.72455 7.19397 5.45926 5.45926C7.19397 3.72455 9.54675 2.75 12 2.75C14.4533 2.75 16.806 3.72455 18.5407 5.45926C20.2754 7.19397 21.25 9.54675 21.25 12C21.25 14.4533 20.2754 16.806 18.5407 18.5407C16.806 20.2754 14.4533 21.25 12 21.25C9.54675 21.25 7.19397 20.2754 5.45926 18.5407C3.72455 16.806 2.75 14.4533 2.75 12Z"/>
</svg>
