<svg width="24" height="24" viewBox="0 0 24 24" fill="currentColor" xmlns="http://www.w3.org/2000/svg">
<path d="M20.4001 6.59961C20.4001 5.80396 20.084 5.0409 19.5214 4.47829C18.9588 3.91568 18.1957 3.59961 17.4001 3.59961H6.6001C5.80445 3.59961 5.04139 3.91568 4.47878 4.47829C3.91617 5.0409 3.6001 5.80396 3.6001 6.59961V17.3996C3.6001 18.1953 3.91617 18.9583 4.47878 19.5209C5.04139 20.0835 5.80445 20.3996 6.6001 20.3996H17.4001C18.1957 20.3996 18.9588 20.0835 19.5214 19.5209C20.084 18.9583 20.4001 18.1953 20.4001 17.3996V6.59961ZM4.8001 17.3996V15.5996H8.4001V19.1996H6.6001L6.4273 19.1912C5.9819 19.1483 5.56848 18.9409 5.26764 18.6097C4.9668 18.2785 4.80012 17.8471 4.8001 17.3996ZM14.4001 15.5996V19.1996H9.6001V15.5996H14.4001ZM17.4001 19.1996H15.6001V15.5996H19.2001V17.3996L19.1917 17.5736C19.1485 18.0188 18.941 18.4319 18.6098 18.7325C18.2786 19.0331 17.8474 19.1996 17.4001 19.1996ZM14.4001 9.59961V14.3996H9.6001V9.59961H14.4001ZM15.6001 9.59961H19.2001V14.3996H15.6001V9.59961ZM14.4001 4.79961V8.39961H9.6001V4.79961H14.4001ZM15.6001 4.79961H17.4001L17.5741 4.80801C18.0193 4.85125 18.4324 5.05868 18.733 5.38988C19.0336 5.72108 19.2001 6.15234 19.2001 6.59961V8.39961H15.6001V4.79961ZM8.4001 4.79961V8.39961H4.8001V6.59961L4.8085 6.42681C4.85145 5.98142 5.05876 5.56799 5.38999 5.26715C5.72123 4.96631 6.15264 4.79963 6.6001 4.79961H8.4001ZM8.4001 9.59961V14.3996H4.8001V9.59961H8.4001Z"/>
</svg>
