<svg width="24" height="24" viewBox="0 0 24 24" fill="currentColor" xmlns="http://www.w3.org/2000/svg">
<path d="M14.7892 9.42843C15.3007 9.42843 15.7912 9.63162 16.1529 9.9933C16.5146 10.355 16.7178 10.8455 16.7178 11.357V16.7133C16.7178 17.9638 16.221 19.1631 15.3368 20.0474C14.4525 20.9317 13.2532 21.4284 12.0026 21.4284C10.7521 21.4284 9.55279 20.9317 8.66853 20.0474C7.78427 19.1631 7.2875 17.9638 7.2875 16.7133V11.357C7.2875 10.8455 7.49069 10.355 7.85236 9.9933C8.21404 9.63162 8.70458 9.42843 9.21607 9.42843H14.7892ZM14.7892 10.7141H9.21607C9.04557 10.7141 8.88206 10.7819 8.7615 10.9024C8.64094 11.023 8.57321 11.1865 8.57321 11.357V16.7133C8.57321 17.6228 8.93453 18.4951 9.57767 19.1383C10.2208 19.7814 11.0931 20.1427 12.0026 20.1427C12.9122 20.1427 13.7845 19.7814 14.4276 19.1383C15.0708 18.4951 15.4321 17.6228 15.4321 16.7133V11.357C15.4321 11.1865 15.3643 11.023 15.2438 10.9024C15.1232 10.7819 14.9597 10.7141 14.7892 10.7141ZM3.64293 9.42843H7.20521C6.86109 9.78673 6.61927 10.2307 6.50493 10.7141H3.64293C3.47243 10.7141 3.30892 10.7819 3.18836 10.9024C3.0678 11.023 3.00007 11.1865 3.00007 11.357V15.8561C2.99996 16.2862 3.10768 16.7095 3.31338 17.0872C3.51908 17.4648 3.8162 17.7849 4.17756 18.0181C4.53892 18.2513 4.95298 18.3902 5.38188 18.4221C5.81077 18.4539 6.2408 18.3777 6.63264 18.2004C6.74664 18.6204 6.91036 19.0199 7.11607 19.3936C6.52881 19.65 5.88694 19.7561 5.24841 19.7023C4.60989 19.6485 3.99482 19.4365 3.45875 19.0854C2.92268 18.7343 2.4825 18.2553 2.17794 17.6915C1.87339 17.1277 1.71407 16.4969 1.71436 15.8561V11.357C1.71436 10.8455 1.91754 10.355 2.27922 9.9933C2.6409 9.63162 3.13144 9.42843 3.64293 9.42843ZM20.3572 9.42843C20.8687 9.42843 21.3592 9.63162 21.7209 9.9933C22.0826 10.355 22.2858 10.8455 22.2858 11.357V15.857C22.286 16.4974 22.1268 17.1278 21.8225 17.6913C21.5182 18.2549 21.0784 18.7337 20.5427 19.0847C20.0071 19.4357 19.3924 19.6479 18.7543 19.7019C18.1161 19.756 17.4746 19.6503 16.8875 19.3944L16.9355 19.307C17.1189 18.959 17.2672 18.5896 17.3735 18.2021C17.7651 18.3784 18.1946 18.4537 18.6229 18.4213C19.0511 18.3888 19.4643 18.2497 19.825 18.0165C20.1856 17.7833 20.482 17.4635 20.6873 17.0863C20.8926 16.7091 21.0001 16.2864 21.0001 15.857V11.357C21.0001 11.1867 20.9325 11.0233 20.8121 10.9027C20.6917 10.7822 20.5284 10.7144 20.3581 10.7141H17.5012C17.3867 10.2306 17.1445 9.7866 16.8001 9.42843H20.3572ZM12.0001 2.57129C12.394 2.57129 12.7841 2.64889 13.1481 2.79965C13.5121 2.95041 13.8428 3.17139 14.1214 3.44997C14.4 3.72854 14.6209 4.05926 14.7717 4.42324C14.9225 4.78722 15.0001 5.17732 15.0001 5.57129C15.0001 5.96525 14.9225 6.35536 14.7717 6.71934C14.6209 7.08332 14.4 7.41403 14.1214 7.69261C13.8428 7.97119 13.5121 8.19216 13.1481 8.34293C12.7841 8.49369 12.394 8.57129 12.0001 8.57129C11.2044 8.57129 10.4414 8.25522 9.87875 7.69261C9.31614 7.13 9.00007 6.36694 9.00007 5.57129C9.00007 4.77564 9.31614 4.01258 9.87875 3.44997C10.4414 2.88736 11.2044 2.57129 12.0001 2.57129ZM18.8598 3.42843C19.1975 3.42843 19.5318 3.49494 19.8438 3.62417C20.1558 3.7534 20.4393 3.94281 20.6781 4.18159C20.9168 4.42037 21.1062 4.70384 21.2355 5.01582C21.3647 5.3278 21.4312 5.66218 21.4312 5.99986C21.4312 6.33755 21.3647 6.67192 21.2355 6.9839C21.1062 7.29588 20.9168 7.57936 20.6781 7.81814C20.4393 8.05691 20.1558 8.24632 19.8438 8.37555C19.5318 8.50478 19.1975 8.57129 18.8598 8.57129C18.1778 8.57129 17.5237 8.30037 17.0415 7.81814C16.5593 7.3359 16.2884 6.68185 16.2884 5.99986C16.2884 5.31788 16.5593 4.66382 17.0415 4.18159C17.5237 3.69935 18.1778 3.42843 18.8598 3.42843ZM5.14036 3.42843C5.47804 3.42843 5.81242 3.49494 6.1244 3.62417C6.43638 3.7534 6.71985 3.94281 6.95863 4.18159C7.19741 4.42037 7.38682 4.70384 7.51605 5.01582C7.64527 5.3278 7.71178 5.66218 7.71178 5.99986C7.71178 6.33755 7.64527 6.67192 7.51605 6.9839C7.38682 7.29588 7.19741 7.57936 6.95863 7.81814C6.71985 8.05691 6.43638 8.24632 6.1244 8.37555C5.81242 8.50478 5.47804 8.57129 5.14036 8.57129C4.45837 8.57129 3.80432 8.30037 3.32208 7.81814C2.83984 7.3359 2.56893 6.68185 2.56893 5.99986C2.56893 5.31788 2.83984 4.66382 3.32208 4.18159C3.80432 3.69935 4.45837 3.42843 5.14036 3.42843ZM12.0001 3.857C11.5454 3.857 11.1094 4.03762 10.7879 4.35911C10.4664 4.6806 10.2858 5.11663 10.2858 5.57129C10.2858 6.02595 10.4664 6.46198 10.7879 6.78347C11.1094 7.10496 11.5454 7.28557 12.0001 7.28557C12.4547 7.28557 12.8908 7.10496 13.2123 6.78347C13.5337 6.46198 13.7144 6.02595 13.7144 5.57129C13.7144 5.11663 13.5337 4.6806 13.2123 4.35911C12.8908 4.03762 12.4547 3.857 12.0001 3.857ZM18.8598 4.71415C18.6909 4.71415 18.5238 4.7474 18.3678 4.81202C18.2118 4.87663 18.07 4.97133 17.9506 5.09072C17.8313 5.21011 17.7366 5.35185 17.6719 5.50784C17.6073 5.66383 17.5741 5.83102 17.5741 5.99986C17.5741 6.1687 17.6073 6.33589 17.6719 6.49188C17.7366 6.64787 17.8313 6.78961 17.9506 6.909C18.07 7.02839 18.2118 7.12309 18.3678 7.18771C18.5238 7.25232 18.6909 7.28557 18.8598 7.28557C19.2008 7.28557 19.5278 7.15012 19.7689 6.909C20.01 6.66788 20.1455 6.34085 20.1455 5.99986C20.1455 5.65887 20.01 5.33184 19.7689 5.09072C19.5278 4.8496 19.2008 4.71415 18.8598 4.71415ZM5.14036 4.71415C4.97151 4.71415 4.80432 4.7474 4.64833 4.81202C4.49234 4.87663 4.35061 4.97133 4.23122 5.09072C4.11183 5.21011 4.01712 5.35185 3.95251 5.50784C3.8879 5.66383 3.85464 5.83102 3.85464 5.99986C3.85464 6.1687 3.8879 6.33589 3.95251 6.49188C4.01712 6.64787 4.11183 6.78961 4.23122 6.909C4.35061 7.02839 4.49234 7.12309 4.64833 7.18771C4.80432 7.25232 4.97151 7.28557 5.14036 7.28557C5.48135 7.28557 5.80837 7.15012 6.04949 6.909C6.29061 6.66788 6.42607 6.34085 6.42607 5.99986C6.42607 5.65887 6.29061 5.33184 6.04949 5.09072C5.80837 4.8496 5.48135 4.71415 5.14036 4.71415Z"/>
</svg>
