<svg width="24" height="24" viewBox="0 0 24 24" fill="currentColor" xmlns="http://www.w3.org/2000/svg">
<path d="M10.7191 2.20572C10.7887 2.14051 10.8715 2.08877 10.9626 2.05347C11.0537 2.01817 11.1514 2 11.25 2C11.3487 2 11.4464 2.01817 11.5375 2.05347C11.6286 2.08877 11.7113 2.14051 11.781 2.20572L14.0309 4.30638C14.1007 4.37143 14.1562 4.4487 14.194 4.53377C14.2318 4.61884 14.2512 4.71004 14.2512 4.80214C14.2512 4.89424 14.2318 4.98544 14.194 5.07051C14.1562 5.15558 14.1007 5.23285 14.0309 5.2979L11.781 7.39856C11.6402 7.53004 11.4492 7.60391 11.25 7.60391C11.0509 7.60391 10.8599 7.53004 10.7191 7.39856C10.5782 7.26708 10.4991 7.08875 10.4991 6.9028C10.4991 6.71686 10.5782 6.53853 10.7191 6.40705L11.6835 5.50796C10.1619 5.56802 8.69596 6.05917 7.48063 6.9161C6.26529 7.77303 5.35818 8.95512 4.87995 10.3051C4.40173 11.6552 4.37504 13.1091 4.80345 14.4737C5.23186 15.8382 6.09505 17.0486 7.27823 17.9439C7.43277 18.0609 7.53121 18.2304 7.55189 18.4152C7.57256 18.6 7.51378 18.7848 7.38847 18.9291C7.26316 19.0734 7.08159 19.1653 6.8837 19.1846C6.68582 19.2039 6.48782 19.149 6.33327 19.032C4.90839 17.9539 3.87033 16.495 3.35811 14.8507C2.84589 13.2065 2.88395 11.4553 3.46721 9.83181C4.05046 8.2083 5.15107 6.78993 6.62163 5.76664C8.09219 4.74334 9.86251 4.16397 11.6955 4.10612L10.7206 3.19583C10.58 3.06452 10.501 2.88645 10.501 2.70077C10.501 2.5151 10.5785 2.33703 10.7191 2.20572ZM16.6123 6.07934C16.7376 5.93531 16.9191 5.84363 17.1168 5.82446C17.3146 5.80529 17.5123 5.8602 17.6667 5.97711C19.0916 7.05527 20.1297 8.51417 20.6419 10.1584C21.1541 11.8027 21.116 13.5538 20.5328 15.1773C19.9495 16.8009 18.8489 18.2192 17.3784 19.2425C15.9078 20.2658 14.1375 20.8452 12.3045 20.903L13.2794 21.8133C13.4161 21.9454 13.4916 22.1223 13.4899 22.3059C13.4882 22.4895 13.4094 22.6651 13.2703 22.7949C13.1313 22.9247 12.9432 22.9984 12.7465 23C12.5499 23.0016 12.3604 22.931 12.219 22.8034L9.9691 20.7028C9.89926 20.6377 9.84384 20.5605 9.80604 20.4754C9.76823 20.3903 9.74877 20.2991 9.74877 20.207C9.74877 20.1149 9.76823 20.0237 9.80604 19.9386C9.84384 19.8536 9.89926 19.7763 9.9691 19.7113L12.219 17.6106C12.3598 17.4791 12.5508 17.4052 12.75 17.4052C12.9491 17.4052 13.1401 17.4791 13.2809 17.6106C13.4218 17.7421 13.5009 17.9204 13.5009 18.1064C13.5009 18.2923 13.4218 18.4706 13.2809 18.6021L12.3165 19.5012C13.8381 19.4411 15.304 18.95 16.5194 18.0931C17.7347 17.2361 18.6418 16.054 19.12 14.704C19.5983 13.354 19.625 11.9 19.1966 10.5355C18.7681 9.17097 17.9049 7.96056 16.7218 7.06526C16.6452 7.00728 16.5816 6.93578 16.5346 6.85483C16.4876 6.77388 16.4582 6.68508 16.448 6.5935C16.4379 6.50193 16.4471 6.40938 16.4753 6.32115C16.5035 6.23293 16.55 6.15076 16.6123 6.07934Z"/>
</svg>
