<svg width="24" height="24" viewBox="0 0 24 24" fill="currentColor" xmlns="http://www.w3.org/2000/svg">
<path fill-rule="evenodd" clip-rule="evenodd" d="M9.94386 3.25H14.0559C15.8939 3.25 17.3499 3.25 18.4889 3.403C19.6609 3.561 20.6099 3.893 21.3589 4.641C22.0369 5.319 22.3739 6.163 22.5489 7.191C22.6759 7.941 22.7219 8.83 22.7389 9.874C22.752 9.95001 22.7533 10.0276 22.7429 10.104C22.7459 10.39 22.7479 10.688 22.7489 10.998C22.7494 11.1969 22.6709 11.3879 22.5306 11.5289C22.4611 11.5987 22.3786 11.6542 22.2877 11.6921C22.1968 11.7301 22.0994 11.7497 22.0009 11.75C21.802 11.7505 21.611 11.672 21.4699 11.5317C21.3289 11.3915 21.2494 11.2009 21.2489 11.002V10.75H2.75086C2.74886 11.138 2.74886 11.554 2.74886 12C2.74886 13.907 2.75086 15.261 2.88886 16.29C3.02386 17.295 3.27786 17.875 3.70086 18.298C4.12386 18.721 4.70386 18.975 5.70986 19.11C6.73786 19.248 8.09186 19.25 9.99886 19.25H11.4989C11.6978 19.25 11.8885 19.329 12.0292 19.4697C12.1698 19.6103 12.2489 19.8011 12.2489 20C12.2489 20.1989 12.1698 20.3897 12.0292 20.5303C11.8885 20.671 11.6978 20.75 11.4989 20.75H9.94386C8.10586 20.75 6.64986 20.75 5.51086 20.597C4.33886 20.439 3.38986 20.107 2.64086 19.359C1.89286 18.61 1.56086 17.661 1.40286 16.489C1.24986 15.349 1.24986 13.894 1.24986 12.056V11.944C1.24986 11.282 1.24986 10.67 1.25686 10.104C1.24614 10.0276 1.24715 9.95007 1.25986 9.874C1.27586 8.967 1.31286 8.184 1.40286 7.511C1.56086 6.339 1.89286 5.39 2.64086 4.641C3.38986 3.893 4.33886 3.561 5.51086 3.403C6.65086 3.25 8.10586 3.25 9.94386 3.25ZM2.77586 9.25H21.2239C21.1999 8.535 21.1539 7.944 21.0699 7.442C20.9269 6.6 20.6829 6.087 20.2979 5.702C19.8749 5.279 19.2949 5.025 18.2889 4.89C17.2619 4.752 15.9069 4.75 13.9999 4.75H9.99986C8.09286 4.75 6.73886 4.752 5.70986 4.89C4.70486 5.025 4.12486 5.279 3.70186 5.702C3.27886 6.125 3.02486 6.705 2.88986 7.711C2.82986 8.156 2.79586 8.663 2.77586 9.25ZM15.4999 13.25C15.6988 13.25 15.8895 13.329 16.0302 13.4697C16.1708 13.6103 16.2499 13.8011 16.2499 14V18.19L16.9699 17.47C17.0385 17.3963 17.1213 17.3372 17.2133 17.2962C17.3053 17.2552 17.4046 17.2332 17.5053 17.2314C17.606 17.2296 17.7061 17.2482 17.7995 17.2859C17.8928 17.3236 17.9777 17.3797 18.0489 17.451C18.1201 17.5222 18.1763 17.607 18.214 17.7004C18.2517 17.7938 18.2702 17.8938 18.2685 17.9945C18.2667 18.0952 18.2446 18.1945 18.2036 18.2865C18.1627 18.3785 18.1035 18.4613 18.0299 18.53L16.0299 20.53C15.8892 20.6705 15.6986 20.7493 15.4999 20.7493C15.3011 20.7493 15.1105 20.6705 14.9699 20.53L12.9699 18.53C12.8962 18.4613 12.8371 18.3785 12.7961 18.2865C12.7551 18.1945 12.733 18.0952 12.7313 17.9945C12.7295 17.8938 12.748 17.7938 12.7857 17.7004C12.8235 17.607 12.8796 17.5222 12.9508 17.451C13.022 17.3797 13.1069 17.3236 13.2003 17.2859C13.2937 17.2482 13.3937 17.2296 13.4944 17.2314C13.5951 17.2332 13.6944 17.2552 13.7864 17.2962C13.8784 17.3372 13.9612 17.3963 14.0299 17.47L14.7499 18.19V14C14.7499 13.8011 14.8289 13.6103 14.9695 13.4697C15.1102 13.329 15.301 13.25 15.4999 13.25ZM19.4699 13.47C19.6105 13.3295 19.8011 13.2507 19.9999 13.2507C20.1986 13.2507 20.3892 13.3295 20.5299 13.47L22.5299 15.47C22.6035 15.5387 22.6627 15.6215 22.7036 15.7135C22.7446 15.8055 22.7667 15.9048 22.7685 16.0055C22.7702 16.1062 22.7517 16.2062 22.714 16.2996C22.6763 16.393 22.6201 16.4778 22.5489 16.549C22.4777 16.6203 22.3928 16.6764 22.2995 16.7141C22.2061 16.7518 22.106 16.7704 22.0053 16.7686C21.9046 16.7668 21.8053 16.7448 21.7133 16.7038C21.6213 16.6628 21.5385 16.6037 21.4699 16.53L20.7499 15.81V20C20.7499 20.1989 20.6708 20.3897 20.5302 20.5303C20.3895 20.671 20.1988 20.75 19.9999 20.75C19.801 20.75 19.6102 20.671 19.4695 20.5303C19.3289 20.3897 19.2499 20.1989 19.2499 20V15.81L18.5299 16.53C18.4612 16.6037 18.3784 16.6628 18.2864 16.7038C18.1944 16.7448 18.0951 16.7668 17.9944 16.7686C17.8937 16.7704 17.7937 16.7518 17.7003 16.7141C17.6069 16.6764 17.522 16.6203 17.4508 16.549C17.3796 16.4778 17.3235 16.393 17.2857 16.2996C17.248 16.2062 17.2295 16.1062 17.2313 16.0055C17.233 15.9048 17.2551 15.8055 17.2961 15.7135C17.3371 15.6215 17.3962 15.5387 17.4699 15.47L19.4699 13.47ZM5.24986 16C5.24986 15.8011 5.32888 15.6103 5.46953 15.4697C5.61019 15.329 5.80095 15.25 5.99986 15.25H9.99986C10.1988 15.25 10.3895 15.329 10.5302 15.4697C10.6708 15.6103 10.7499 15.8011 10.7499 16C10.7499 16.1989 10.6708 16.3897 10.5302 16.5303C10.3895 16.671 10.1988 16.75 9.99986 16.75H5.99986C5.80095 16.75 5.61019 16.671 5.46953 16.5303C5.32888 16.3897 5.24986 16.1989 5.24986 16Z"/>
</svg>
