<svg width="217" height="250" viewBox="0 0 217 250" fill="none" xmlns="http://www.w3.org/2000/svg">
<path d="M0.5 187.688V62.3116L108.5 0L216.5 62.3116V187.688L108.5 250L0.5 187.688Z" fill="#1EB654"/>
<path d="M54.5 156.156L108.5 250L162.5 156.156H54.5Z" fill="#25C55A"/>
<path d="M54.5 156.156L108.5 62.3115L162.5 156.156H54.5Z" fill="#1FB655"/>
<path d="M216.5 62.3115H108.5L162.5 156.156L216.5 62.3115Z" fill="#1BA352"/>
<path d="M108.5 62.3115H0.5L54.5 156.156L108.5 62.3115Z" fill="#0C9D46"/>
<path d="M54.5 156.156L0.5 187.688L108.5 250L54.5 156.156Z" fill="#1EA454"/>
<path d="M0.5 62.3115V187.688L54.5 156.156L0.5 62.3115Z" fill="#1A944F"/>
<path d="M162.5 156.156L216.5 187.688L108.5 250L162.5 156.156Z" fill="#36D667"/>
<path d="M216.5 62.3115V187.688L162.5 156.156L216.5 62.3115Z" fill="#25C55A"/>
<path d="M108.5 0L216.5 62.3116H108.5V0Z" fill="#14914A"/>
<path d="M108.5 0L0.5 62.3116H108.5V0Z" fill="#158C48"/>
<path d="M54.5 156.156L108.5 250L162.5 156.156H54.5Z" fill="#25C55A"/>
<path d="M54.5 156.156L108.5 62.3115L162.5 156.156H54.5Z" fill="#1FB655"/>
<path d="M216.5 62.3115H108.5L162.5 156.156L216.5 62.3115Z" fill="#1BA352"/>
<path d="M108.5 62.3115H0.5L54.5 156.156L108.5 62.3115Z" fill="#0C9D46"/>
<path opacity="0.04" d="M54.5 156.156L0.5 187.688L108.5 250L54.5 156.156Z" fill="url(#paint0_linear_15148_19978)"/>
<path opacity="0.04" d="M0.5 62.3115V187.688L54.5 156.156L0.5 62.3115Z" fill="url(#paint1_linear_15148_19978)"/>
<path opacity="0.04" d="M162.5 156.156L216.5 187.688L108.5 250L162.5 156.156Z" fill="url(#paint2_linear_15148_19978)"/>
<path opacity="0.04" d="M216.5 62.3115V187.688L162.5 156.156L216.5 62.3115Z" fill="url(#paint3_linear_15148_19978)"/>
<path opacity="0.04" d="M108.5 0L216.5 62.3116H108.5V0Z" fill="url(#paint4_linear_15148_19978)"/>
<path opacity="0.04" d="M108.5 0L0.5 62.3116H108.5V0Z" fill="url(#paint5_linear_15148_19978)"/>
<path d="M76.7865 139.882C76.8355 141.179 77.1657 142.322 77.7774 143.312C78.389 144.301 79.2208 145.079 80.2749 145.639C81.3269 146.201 82.5257 146.482 83.8733 146.482C86.3953 146.482 88.2934 145.749 89.5656 144.281C90.8378 142.815 91.4759 140.723 91.4759 138.009V102.834H99.8491V137.569C99.8491 142.851 98.4403 146.892 95.6268 149.692C92.8113 152.49 88.907 153.891 83.912 153.891C81.49 153.891 79.3289 153.535 77.4308 152.828C75.5347 152.119 73.9424 151.124 72.658 149.839C71.3736 148.556 70.3929 147.063 69.7201 145.364C69.0473 143.664 68.7109 141.837 68.7109 139.88H76.7906L76.7865 139.882Z" fill="white"/>
<path d="M127.538 105.441C129.999 106.848 131.891 108.766 133.212 111.2C134.533 113.634 135.196 116.403 135.196 119.507C135.196 122.61 134.529 125.382 133.194 127.814C131.858 130.247 129.962 132.162 127.501 133.554C125.043 134.947 122.087 135.646 118.635 135.646H112.394V153.398H104.058V103.331H118.708C122.135 103.331 125.079 104.034 127.538 105.439V105.441ZM124.252 112.648C122.635 111.033 120.372 110.227 117.458 110.227H112.355V128.824H117.458C119.391 128.824 121.045 128.457 122.417 127.724C123.789 126.991 124.841 125.934 125.575 124.551C126.309 123.17 126.676 121.488 126.676 119.509C126.676 116.55 125.868 114.263 124.252 112.65V112.648Z" fill="white"/>
<defs>
<linearGradient id="paint0_linear_15148_19978" x1="39.812" y1="182.958" x2="54.9597" y2="156.59" gradientUnits="userSpaceOnUse">
<stop stop-opacity="0"/>
<stop offset="1"/>
</linearGradient>
<linearGradient id="paint1_linear_15148_19978" x1="27.284" y1="156.142" x2="54.5" y2="156.142" gradientUnits="userSpaceOnUse">
<stop stop-opacity="0"/>
<stop offset="1"/>
</linearGradient>
<linearGradient id="paint2_linear_15148_19978" x1="164.66" y1="199.827" x2="183.595" y2="242.061" gradientUnits="userSpaceOnUse">
<stop stop-opacity="0"/>
<stop offset="1"/>
</linearGradient>
<linearGradient id="paint3_linear_15148_19978" x1="189.716" y1="156.142" x2="162.5" y2="156.142" gradientUnits="userSpaceOnUse">
<stop stop-opacity="0"/>
<stop offset="1"/>
</linearGradient>
<linearGradient id="paint4_linear_15148_19978" x1="132.692" y1="24.2215" x2="108.458" y2="62.257" gradientUnits="userSpaceOnUse">
<stop stop-opacity="0"/>
<stop offset="1"/>
</linearGradient>
<linearGradient id="paint5_linear_15148_19978" x1="84.308" y1="24.2215" x2="108.542" y2="62.257" gradientUnits="userSpaceOnUse">
<stop stop-opacity="0"/>
<stop offset="1"/>
</linearGradient>
</defs>
</svg>
